<svg width="163" height="30" fill="none" xmlns="http://www.w3.org/2000/svg"><path d="M15.984 0c.469.277.921.561 1.374.862.445.293.873.593 1.302.91a29.828 29.828 0 00-6.328 4.507 24.593 24.593 0 013.636 2.64 25.41 25.41 0 016.337-4.04c.357.356.715.72 1.056 1.091.341.372.675.744.992 1.131l-.285.119a22.547 22.547 0 00-7.33 4.879 22.442 22.442 0 00-4.899 7.298 22.442 22.442 0 00-1.715 8.62h.008v1.43H7.266v-1.43h.008c0-3.361.667-6.659 1.93-9.703a25.233 25.233 0 014.716-7.394c-.437-.371-.89-.727-1.35-1.067a23.352 23.352 0 00-2.287-1.47A29.555 29.555 0 002.867 28.01h.008v1.422H0V28.01h.008a32.45 32.45 0 012.478-12.47 32.454 32.454 0 017.09-10.58A32.434 32.434 0 0115.984 0z" fill="#FF6712"/><path d="M31.825 25.114a32.212 32.212 0 00-2.27-9.354 32.46 32.46 0 00-4.265-7.441l-.389.15a3.877 3.877 0 00-.27.11c-.69.285-1.358.602-2.009.957a29.597 29.597 0 014.272 7.3 29.178 29.178 0 012.049 8.279h2.882z" fill="#FF6712"/><path d="M11.609 29.44h20.36c.023-.474.031-.949.031-1.423 0-.475-.008-.957-.032-1.432H24.64a24.994 24.994 0 00-1.493-7.25 25.237 25.237 0 00-4.16-7.3c-.413.356-.81.72-1.2 1.107-.293.293-.571.594-.849.894a22.335 22.335 0 013.518 6.27 22.302 22.302 0 011.318 6.287H10a18.02 18.02 0 00-.04.925v1.922h1.649zM17.651 1.052s4.042 2.926 5.575 4.76L21.36 7.164s-3.494-3.827-5.44-4.578" fill="#FF6712"/><path d="M31.826 25.114s.19 1.416.142 1.637c-.055.222-3.025.064-3.025.064s.08-1.85-.095-2.594" fill="#FF6712"/><path d="M66.471 9.613h-5.108v1.703c-1.259-1.48-3.184-2.295-5.071-2.295-5.22 0-8.292 4.775-8.292 9.587 0 4.923 3.035 9.772 8.366 9.772 1.888 0 3.812-.814 4.923-2.258h.074v1.666h5.108V9.613zm-8.92 14.177c-2.666 0-4.295-2.665-4.295-5.108 0-2.443 1.629-5.071 4.294-5.071 2.665 0 4.331 2.628 4.331 5.071 0 2.443-1.666 5.108-4.33 5.108zM73.947 9.613h-5.183v18.175h5.183v-8.995c0-2.184.037-5.626 3.11-5.626 2.924 0 2.812 2.813 2.812 4.997v9.624h5.183V16.683c0-4.22-1.407-7.662-6.293-7.662-1.85 0-3.665.63-4.738 2.258h-.074V9.613zM92.476 1h-5.182v26.788h5.182v-7.736h.074l5.96 7.736h6.811l-8.255-10.18 7.662-7.995h-6.737l-5.441 6.663h-.074V1z" fill="#232340"/><path d="M113.608 9.02c-5.663 0-9.55 4.036-9.55 9.7 0 5.626 3.85 9.66 9.55 9.66 5.701 0 9.55-4.034 9.55-9.66 0-5.664-3.886-9.7-9.55-9.7zm0 4.59c2.665 0 4.294 2.592 4.294 5.11 0 2.442-1.629 5.07-4.294 5.07-2.665 0-4.294-2.628-4.294-5.07 0-2.518 1.629-5.11 4.294-5.11zM129.317 9.613h-5.182v18.175h5.182v-8.18c0-2.814.37-5.997 3.961-5.997.777 0 1.518.222 2.147.666l.629-4.812c-.666-.26-1.406-.444-2.147-.444-1.925 0-3.479.888-4.516 2.48h-.074V9.613zM153.441 9.613h-5.108v1.703c-1.259-1.48-3.183-2.295-5.071-2.295-5.22 0-8.292 4.775-8.292 9.587 0 4.923 3.035 9.772 8.366 9.772 1.888 0 3.812-.814 4.923-2.258h.074v1.666h5.108V9.613zM144.52 23.79c-2.665 0-4.294-2.665-4.294-5.108 0-2.443 1.629-5.071 4.294-5.071 2.665 0 4.331 2.628 4.331 5.071 0 2.443-1.666 5.108-4.331 5.108z" fill="#232340"/><circle cx="159.591" cy="24.379" r="3.409" fill="#FF6712"/></svg>