<svg width="400" height="400" viewBox="0 0 400 400" fill="none" xmlns="http://www.w3.org/2000/svg">
<g clip-path="url(#clip0_277_3521)">
<circle cx="200" cy="200" r="200" fill="#64748B"/>
<path fill-rule="evenodd" clip-rule="evenodd" d="M199.961 83.3333C172.264 83.3482 145.475 93.4633 124.385 111.87C103.294 130.277 89.2772 155.775 84.8403 183.805C80.4033 211.835 85.8357 240.569 100.166 264.87C114.496 289.17 136.79 307.452 163.061 316.447C168.857 317.556 171.04 313.852 171.04 310.703C171.04 307.553 170.924 298.422 170.885 288.439C138.429 295.669 131.571 274.317 131.571 274.317C126.277 260.451 118.627 256.807 118.627 256.807C108.04 249.399 119.419 249.538 119.419 249.538C131.146 250.389 137.309 261.878 137.309 261.878C147.702 280.16 164.607 274.871 171.252 271.781C172.296 264.037 175.329 258.768 178.671 255.777C152.745 252.766 125.504 242.506 125.504 196.671C125.344 184.785 129.646 173.289 137.521 164.564C136.323 161.553 132.324 149.391 138.661 132.872C138.661 132.872 148.456 129.663 170.75 145.133C189.873 139.771 210.049 139.771 229.172 145.133C251.447 129.663 261.223 132.872 261.223 132.872C267.579 149.352 263.58 161.513 262.382 164.564C270.282 173.291 274.593 184.806 274.418 196.711C274.418 242.645 247.12 252.766 221.154 255.717C225.327 259.441 229.056 266.711 229.056 277.882C229.056 293.886 228.921 306.761 228.921 310.703C228.921 313.892 231.026 317.616 236.938 316.447C263.212 307.451 285.508 289.166 299.838 264.861C314.168 240.557 319.598 211.818 315.156 183.785C310.714 155.753 296.69 130.254 275.593 111.851C254.495 93.4472 227.7 83.3388 200 83.3333H199.961Z" fill="white"/>
</g>
<defs>
<clipPath id="clip0_277_3521">
<rect width="400" height="400" fill="white"/>
</clipPath>
</defs>
</svg>
