<svg width="400" height="400" viewBox="0 0 400 400" fill="none" xmlns="http://www.w3.org/2000/svg">
<g clip-path="url(#clip0_277_3529)">
<circle cx="200" cy="200" r="200" fill="#64748B"/>
<path fill-rule="evenodd" clip-rule="evenodd" d="M103.26 299.874H148.798V155.52H103.26V299.874ZM111.51 131.046C115.791 133.932 120.832 135.487 125.997 135.516C129.455 135.587 132.892 134.962 136.103 133.679C139.314 132.396 142.233 130.481 144.687 128.048C147.14 125.616 149.078 122.715 150.384 119.519C151.69 116.323 152.338 112.897 152.289 109.445C152.293 104.29 150.767 99.2497 147.903 94.9594C145.04 90.6692 140.967 87.3217 136.198 85.3394C131.43 83.3572 126.18 82.829 121.111 83.8215C116.042 84.814 111.381 87.2828 107.717 90.9162C104.053 94.5497 101.549 99.185 100.522 104.237C99.495 109.289 99.9905 114.532 101.946 119.303C103.902 124.074 107.23 128.161 111.51 131.046ZM271.129 300H316.646L316.667 210.705C316.667 166.624 289.218 151.574 263.809 151.574C240.315 151.574 224.918 166.75 220.522 175.629H219.933V155.625H176.141V300H221.679V221.725C221.679 200.86 234.93 190.701 248.434 190.701C261.222 190.701 271.129 197.88 271.129 221.138V300Z" fill="white"/>
</g>
<defs>
<clipPath id="clip0_277_3529">
<rect width="400" height="400" fill="white"/>
</clipPath>
</defs>
</svg>
