<svg width="400" height="400" viewBox="0 0 400 400" fill="none" xmlns="http://www.w3.org/2000/svg">
<g clip-path="url(#clip0_277_3490)">
<circle cx="200" cy="200" r="200" fill="#64748B"/>
<path fill-rule="evenodd" clip-rule="evenodd" d="M98.2277 178.924C156.389 153.051 195.172 135.994 214.577 127.753C269.983 104.224 281.495 100.136 288.999 100.001C290.65 99.9718 294.34 100.389 296.73 102.37C298.749 104.042 299.304 106.301 299.57 107.886C299.836 109.472 300.166 113.083 299.903 115.905C296.901 148.116 283.909 226.282 277.3 262.358C274.503 277.623 268.997 282.742 263.665 283.242C252.08 284.331 243.282 275.425 232.06 267.914C214.501 256.162 204.581 248.846 187.537 237.378C167.839 224.124 180.608 216.84 191.834 204.935C194.772 201.82 245.819 154.412 246.807 150.111C246.931 149.573 247.045 147.568 245.879 146.51C244.712 145.451 242.991 145.813 241.748 146.101C239.987 146.509 211.936 165.44 157.594 202.893C149.632 208.476 142.42 211.196 135.958 211.053C128.835 210.896 115.132 206.941 104.945 203.56C92.451 199.413 82.5208 197.221 83.3855 190.178C83.8359 186.51 88.7833 182.759 98.2277 178.924Z" fill="white"/>
</g>
<defs>
<clipPath id="clip0_277_3490">
<rect width="400" height="400" fill="white"/>
</clipPath>
</defs>
</svg>
