<svg width="400" height="400" viewBox="0 0 400 400" fill="none" xmlns="http://www.w3.org/2000/svg">
<g clip-path="url(#clip0_277_3545)">
<circle cx="200" cy="200" r="200" fill="#64748B"/>
<path fill-rule="evenodd" clip-rule="evenodd" d="M100 300L115.305 244.366C105.849 228.046 100.883 209.532 100.906 190.691C100.929 131.494 149.32 83.3333 208.786 83.3333C237.405 83.3334 264.852 94.6549 285.085 114.806C305.318 134.957 316.678 162.286 316.667 190.778C316.641 249.971 268.243 298.143 208.788 298.143H208.741C190.731 298.142 173.008 293.648 157.191 285.073L100 300ZM159.852 265.635L163.128 267.568C176.945 275.713 192.708 280.009 208.765 280.008H208.8C258.22 280.008 298.443 239.975 298.464 190.769C298.483 141.469 258.355 101.487 208.834 101.468C159.375 101.468 119.153 141.496 119.134 190.698C119.109 207.499 123.861 223.963 132.841 238.188L134.975 241.564L125.916 274.493L159.852 265.635ZM175.761 141.175C177.682 141.252 179.81 141.341 181.827 145.81C183.207 148.866 185.528 154.564 187.378 159.104C188.74 162.448 189.846 165.163 190.132 165.732C190.806 167.074 191.256 168.644 190.357 170.433C190.22 170.706 190.093 170.963 189.972 171.209C189.301 172.574 188.806 173.58 187.664 174.908C187.215 175.429 186.752 175.99 186.289 176.551C185.358 177.678 184.428 178.805 183.62 179.607C182.268 180.945 180.864 182.396 182.436 185.083C184.009 187.769 189.419 196.553 197.432 203.665C206.05 211.317 213.539 214.551 217.332 216.188C218.07 216.507 218.669 216.765 219.108 216.984C221.804 218.326 223.375 218.098 224.949 216.309C226.524 214.52 231.686 208.48 233.484 205.793C235.281 203.106 237.078 203.553 239.549 204.448C242.021 205.343 255.272 211.836 257.968 213.178C258.497 213.441 258.992 213.679 259.45 213.899C261.326 214.8 262.594 215.408 263.135 216.309C263.809 217.429 263.81 222.799 261.563 229.067C259.316 235.335 248.312 241.377 243.369 241.824C242.893 241.867 242.42 241.922 241.934 241.979C237.366 242.514 231.601 243.188 211.023 235.11C185.68 225.16 168.976 200.495 165.547 195.432C165.269 195.021 165.078 194.739 164.977 194.605L164.946 194.563C163.487 192.621 153.97 179.954 153.97 166.849C153.97 154.493 160.071 148.015 162.879 145.034C163.071 144.83 163.247 144.642 163.406 144.47C165.227 142.402 167.833 141.184 170.595 141.113L170.891 141.113C172.588 141.112 174.276 141.112 175.761 141.175Z" fill="white"/>
</g>
<defs>
<clipPath id="clip0_277_3545">
<rect width="400" height="400" fill="white"/>
</clipPath>
</defs>
</svg>
