<svg width="56" height="56" viewBox="0 0 56 56" fill="none" xmlns="http://www.w3.org/2000/svg">
<path d="M23.1126 14.1813H31.792L22.782 40.877C22.6894 41.1513 22.5131 41.3897 22.2779 41.5585C22.0427 41.7274 21.7605 41.8183 21.471 41.8183H14.7163C14.4969 41.8184 14.2807 41.7662 14.0855 41.666C13.8904 41.5659 13.7218 41.4208 13.5939 41.2426C13.4659 41.0644 13.3822 40.8583 13.3497 40.6414C13.3172 40.4244 13.3368 40.2029 13.407 39.995L21.8013 15.1227C21.8939 14.8482 22.0702 14.6098 22.3054 14.4408C22.5407 14.2719 22.823 14.1813 23.1126 14.1813Z" fill="url(#paint0_linear_112_146)"/>
<path d="M35.725 32.087H21.9617C21.8337 32.0869 21.7087 32.1253 21.6029 32.1972C21.497 32.2691 21.4153 32.3713 21.3684 32.4903C21.3214 32.6093 21.3114 32.7398 21.3397 32.8646C21.3679 32.9894 21.4331 33.1028 21.5267 33.19L30.3707 41.4447C30.6282 41.6849 30.9672 41.8184 31.3193 41.8183H39.1127L35.725 32.087Z" fill="#0078D4"/>
<path d="M23.1127 14.1813C22.8199 14.1802 22.5344 14.2727 22.298 14.4454C22.0615 14.6181 21.8865 14.8618 21.7984 15.141L13.4174 39.9723C13.3425 40.181 13.319 40.4045 13.3489 40.6241C13.3787 40.8437 13.461 41.0529 13.5888 41.234C13.7166 41.4151 13.8861 41.5627 14.083 41.6644C14.2799 41.7662 14.4984 41.8189 14.72 41.8183H21.649C21.9071 41.7722 22.1483 41.6585 22.348 41.4886C22.5477 41.3188 22.6987 41.099 22.7857 40.8517L24.457 35.926L30.427 41.4943C30.6772 41.7013 30.991 41.8157 31.3157 41.8183H39.08L35.6747 32.087L25.7477 32.0893L31.8234 14.1813H23.1127Z" fill="url(#paint1_linear_112_146)"/>
<path d="M34.1983 15.1213C34.1058 14.8473 33.9298 14.6093 33.6949 14.4406C33.46 14.272 33.1781 14.1813 32.8889 14.1813H23.2159C23.5051 14.1814 23.787 14.2721 24.0218 14.4407C24.2567 14.6093 24.4328 14.8474 24.5253 15.1213L32.9199 39.9947C32.9901 40.2026 33.0098 40.4242 32.9773 40.6412C32.9448 40.8582 32.8612 41.0643 32.7332 41.2426C32.6053 41.4208 32.4367 41.566 32.2415 41.6662C32.0463 41.7664 31.83 41.8187 31.6106 41.8187H41.2839C41.5033 41.8186 41.7196 41.7663 41.9147 41.6661C42.1099 41.5659 42.2784 41.4207 42.4063 41.2424C42.5342 41.0642 42.6179 40.8581 42.6503 40.6411C42.6828 40.4241 42.6631 40.2025 42.5929 39.9947L34.1983 15.1213Z" fill="url(#paint2_linear_112_146)"/>
<defs>
<linearGradient id="paint0_linear_112_146" x1="26.276" y1="16.2293" x2="17.2623" y2="42.858" gradientUnits="userSpaceOnUse">
<stop stop-color="#114A8B"/>
<stop offset="1" stop-color="#0669BC"/>
</linearGradient>
<linearGradient id="paint1_linear_112_146" x1="29.0917" y1="28.639" x2="27.0067" y2="29.344" gradientUnits="userSpaceOnUse">
<stop stop-opacity="0.3"/>
<stop offset="0.071" stop-opacity="0.2"/>
<stop offset="0.321" stop-opacity="0.1"/>
<stop offset="0.623" stop-opacity="0.05"/>
<stop offset="1" stop-opacity="0"/>
</linearGradient>
<linearGradient id="paint2_linear_112_146" x1="27.9449" y1="15.4527" x2="37.8393" y2="41.813" gradientUnits="userSpaceOnUse">
<stop stop-color="#3CCBF4"/>
<stop offset="1" stop-color="#2892DF"/>
</linearGradient>
</defs>
</svg>
