<svg width="57" height="56" viewBox="0 0 57 56" fill="none" xmlns="http://www.w3.org/2000/svg">
<path d="M41.9358 21.6542C41.9356 21.1362 41.8242 20.6785 41.5989 20.2858C41.3776 19.8994 41.0462 19.5756 40.6017 19.3197C36.9325 17.2157 33.2597 15.1182 29.5917 13.0121C28.6028 12.4444 27.644 12.4652 26.6625 13.0411C25.202 13.8975 17.89 18.0635 15.7111 19.3185C14.8138 19.8352 14.3772 20.6257 14.377 21.6532C14.3755 25.8844 14.377 30.1155 14.3755 34.3466C14.3755 34.8532 14.4824 35.3022 14.6978 35.689C14.9192 36.0869 15.2552 36.4196 15.7099 36.6814C17.8889 37.9364 25.2019 42.102 26.6621 42.9588C27.644 43.535 28.6028 43.5555 29.592 42.9877C33.2602 40.8815 36.9332 38.784 40.6029 36.6801C41.0577 36.4184 41.3937 36.0855 41.6151 35.6879C41.8301 35.301 41.9372 34.8522 41.9372 34.3455C41.9372 34.3455 41.9372 25.8854 41.9358 21.6542Z" fill="#A179DC"/>
<path d="M28.1985 27.9587L14.6978 35.689C14.9191 36.0869 15.2552 36.4196 15.7099 36.6814C17.8889 37.9364 25.2019 42.102 26.662 42.9588C27.644 43.535 28.6028 43.5556 29.592 42.9877C33.2601 40.8815 36.9331 38.784 40.6029 36.6801C41.0576 36.4184 41.3937 36.0856 41.6151 35.6879L28.1985 27.9587Z" fill="#280068"/>
<path d="M41.9359 21.6541C41.9357 21.1362 41.8243 20.6785 41.599 20.2858L28.1986 27.9588L41.6152 35.6879C41.8302 35.301 41.9371 34.8522 41.9373 34.3455C41.9373 34.3455 41.9373 25.8854 41.9359 21.6541Z" fill="#390091"/>
<path d="M36.1473 25.0689V26.5139H37.6003V25.0689H38.3269V26.5139H39.7799V27.2363H38.3269V28.6812H39.7799V29.4036H38.3269V30.8486H37.6003V29.4036H36.1473V30.8486H35.4208V29.4036H33.9679V28.6812H35.4208V27.2363H33.9679V26.5139H35.4208V25.0689H36.1473ZM37.6003 27.2362H36.1473V28.6812H37.6003V27.2362Z" fill="white"/>
<path d="M28.2282 17.8122C32.0181 17.8122 35.3269 19.859 37.0992 22.9014L37.082 22.8721L32.6228 25.4253C31.7444 23.9461 30.1339 22.9478 28.2863 22.9272L28.2281 22.9269C25.4108 22.9269 23.1268 25.1982 23.1268 27.9999C23.1258 28.8829 23.3578 29.7508 23.7996 30.5168C24.6789 32.0434 26.332 33.073 28.2282 33.073C30.1362 33.073 31.7986 32.0303 32.6734 30.4874L32.6522 30.5244L37.1045 33.0894C35.3516 36.106 32.0881 38.1465 28.3423 38.1871L28.2282 38.1878C24.4263 38.1878 21.1081 36.1283 19.3402 33.0699C18.4772 31.5768 17.9834 29.8458 17.9834 27.9999C17.9834 22.3734 22.57 17.8121 28.2281 17.8121L28.2282 17.8122Z" fill="white"/>
</svg>
