<svg width="57" height="56" viewBox="0 0 57 56" fill="none" xmlns="http://www.w3.org/2000/svg">
<path d="M13.8223 33.5414C13.8521 33.6088 13.8858 33.671 13.9221 33.7333C13.939 33.7695 13.9623 33.8071 13.9831 33.8408C14.0168 33.9083 14.0531 33.9731 14.0881 34.0379L14.2916 34.3801C14.3292 34.4436 14.3655 34.5059 14.4082 34.5681C14.4795 34.6899 14.5638 34.8092 14.6377 34.931C14.6714 34.9816 14.7025 35.0322 14.7401 35.0827C14.8827 35.3044 15.0123 35.4885 15.151 35.6673C15.2495 35.8009 15.3481 35.9318 15.4544 36.0627C15.4894 36.112 15.5283 36.1612 15.5646 36.2105L15.851 36.5579C15.886 36.5981 15.921 36.6448 15.9586 36.6862C16.0857 36.8392 16.2205 36.987 16.3553 37.1374C16.3553 37.14 16.3592 37.1425 16.3618 37.1464C16.529 37.3564 16.7092 37.5431 16.9062 37.709L16.9114 37.7142C17.0151 37.8205 17.1188 37.9255 17.229 38.0292L17.3599 38.155C17.5038 38.2898 17.6477 38.4233 17.7994 38.5529C17.802 38.5529 17.8033 38.5555 17.8059 38.5568L17.8798 38.6216C18.012 38.737 18.1455 38.8511 18.2816 38.9574L18.4437 39.0935C18.5538 39.1816 18.6679 39.2646 18.7807 39.3515L18.957 39.4863C19.0776 39.577 19.2059 39.6652 19.329 39.7533C19.3744 39.7857 19.4198 39.8181 19.4664 39.8479L19.504 39.8778L19.8683 40.1163L20.0239 40.22C20.2144 40.3418 20.4037 40.4559 20.5929 40.57C20.6474 40.5972 20.7018 40.627 20.7524 40.6581C20.8924 40.7385 21.0376 40.8202 21.1789 40.8941C21.2566 40.9381 21.337 40.9757 21.4174 41.0159C21.5146 41.0704 21.6157 41.1235 21.7194 41.1779C21.748 41.187 21.7713 41.1961 21.7946 41.2091L21.7998 41.2039C21.8426 41.2233 21.8828 41.2441 21.9242 41.2648C22.0798 41.3426 22.2418 41.4165 22.4104 41.4891C22.4415 41.502 22.4752 41.515 22.5089 41.5331C22.6956 41.6148 22.8822 41.6926 23.0754 41.7678C23.1194 41.7807 23.1661 41.8028 23.2115 41.8196C23.3865 41.8857 23.5667 41.9531 23.7456 42.0167L23.8104 42.04C24.0087 42.1074 24.2045 42.1722 24.4067 42.2331C24.4534 42.2461 24.5013 42.263 24.5506 42.2759C24.7567 42.3381 24.9563 42.412 25.165 42.4509C38.482 44.8659 42.3515 34.4838 42.3515 34.4838C39.1004 38.6968 33.3305 39.8078 27.8665 38.5711C27.6643 38.5244 27.4621 38.4596 27.2573 38.4C26.9682 38.3181 26.6816 38.2278 26.3978 38.129L26.521 38.1666L26.4406 38.1355C26.2643 38.0759 26.0945 38.0098 25.9221 37.9437C25.8799 37.9258 25.8371 37.9093 25.7937 37.8944L25.7795 37.8905C25.5889 37.814 25.4035 37.7363 25.2195 37.6546C25.1793 37.6416 25.1456 37.6235 25.1054 37.6079C24.8874 37.5129 24.6713 37.4135 24.4572 37.3098L24.6361 37.3888C24.5895 37.3682 24.5436 37.3457 24.4987 37.3214C24.3769 37.2644 24.255 37.1996 24.1358 37.1387C24.0449 37.0956 23.9554 37.0498 23.8674 37.0012L23.8933 37.0142C23.7469 36.9364 23.6004 36.8522 23.4526 36.7731C23.4085 36.742 23.358 36.7161 23.3074 36.6875C23.0878 36.5599 22.8708 36.4276 22.6567 36.2909L22.7383 36.3401C22.6835 36.3062 22.6298 36.2703 22.5776 36.2325L22.5854 36.2377C22.446 36.1521 22.3094 36.0622 22.1757 35.9681C22.1317 35.9396 22.0915 35.9085 22.0461 35.8773C21.9064 35.782 21.769 35.6835 21.6339 35.5818L21.665 35.6038C21.6105 35.5598 21.5522 35.5183 21.4939 35.4755C21.3798 35.386 21.2644 35.3005 21.1504 35.2072L20.9974 35.0853C20.8344 34.9556 20.6744 34.822 20.5178 34.6847L20.5165 34.6834L20.0666 34.2751L19.937 34.1533C19.8307 34.0457 19.7218 33.9433 19.6129 33.837L19.4872 33.7073C19.353 33.5744 19.222 33.4383 19.0944 33.299L19.0866 33.2899L19.0646 33.2718C18.9273 33.121 18.7921 32.9685 18.6588 32.8142C18.6238 32.774 18.5914 32.7312 18.5551 32.6884L18.2609 32.3319C18.1282 32.1653 17.9986 31.9964 17.872 31.8251L17.8201 31.7525C14.7894 27.6354 13.6927 21.9537 16.1181 17.2922L13.9766 20.0002C11.2219 23.9396 11.5628 29.0627 13.6693 33.2458C13.7173 33.3482 13.7705 33.4442 13.8223 33.5414Z" fill="#1266A9"/>
<path d="M23.1 27.8662L23.0857 27.8454L23.074 27.8298L23.1 27.8662Z" fill="black"/>
<path d="M24.5493 29.5669L24.6659 29.6835C24.8137 29.8261 24.9654 29.9648 25.1196 30.1035L25.1391 30.1204C25.2946 30.2578 25.4696 30.4017 25.6498 30.5417L25.677 30.5624C25.7211 30.5922 25.7587 30.6272 25.8015 30.657C25.983 30.7971 26.1658 30.9306 26.3563 31.0641L26.3758 31.0758C26.4561 31.1341 26.5417 31.1872 26.6324 31.2443C26.6687 31.2676 26.7102 31.2987 26.7491 31.3221C26.8865 31.4102 27.0213 31.4919 27.16 31.5761C27.1821 31.5852 27.2015 31.5969 27.2222 31.6059C27.3389 31.6772 27.466 31.7459 27.5878 31.8082C27.6306 31.8341 27.6721 31.8535 27.7161 31.8782C27.803 31.9209 27.8885 31.9663 27.9715 32.0104L28.013 32.0285C28.188 32.1141 28.3669 32.1945 28.5419 32.2735C28.586 32.2904 28.6236 32.3047 28.6611 32.3228C28.805 32.385 28.9515 32.4447 29.0954 32.4991C29.1602 32.5211 29.2212 32.5471 29.2821 32.5665C29.4143 32.6158 29.553 32.6611 29.6839 32.7065L29.8654 32.7648C30.0547 32.8232 30.2465 32.8997 30.4475 32.9308C40.7311 34.6238 43.1111 26.7461 43.1111 26.7461C40.9683 29.8144 36.8214 31.2767 32.4023 30.1346C32.1817 30.079 31.9629 30.0163 31.7464 29.9467L31.8203 29.9674C31.758 29.9506 31.7036 29.9311 31.644 29.913C31.5091 29.8663 31.3704 29.8209 31.2395 29.773L31.0528 29.703C30.9077 29.6446 30.7599 29.5902 30.6186 29.528C30.5745 29.5085 30.5343 29.4956 30.5006 29.4761C30.3191 29.3944 30.1363 29.3141 29.9588 29.2285L29.6917 29.0898L29.5375 29.012C29.4182 28.9498 29.308 28.885 29.1939 28.8189C29.1648 28.8052 29.1367 28.7896 29.1097 28.7722L29.1136 28.7735C28.9762 28.688 28.8336 28.605 28.7013 28.5181C28.6573 28.4935 28.6171 28.4637 28.5756 28.4378L28.306 28.2628C28.1193 28.1331 27.9365 27.9944 27.7511 27.8596C27.7097 27.822 27.6695 27.7909 27.6293 27.7572C25.6861 26.2366 24.1539 24.1587 23.4267 21.8059C22.6605 19.3597 22.8291 16.6167 24.1526 14.391L22.5257 16.6828C20.5281 19.536 20.6409 23.3498 22.1965 26.3676C22.4803 26.925 22.7681 27.3955 23.0857 27.8441C23.3813 28.2667 23.708 28.7618 24.102 29.1015C24.242 29.2609 24.3924 29.4126 24.5493 29.5669Z" fill="#1266A9"/>
<path d="M15.1575 35.6751L15.1523 35.6673L15.1432 35.6556L15.1575 35.6751ZM20.5476 34.7106L20.5605 34.7197L20.5631 34.7236L20.5476 34.7106Z" fill="black"/>
<path d="M29.7151 14.2017C28.5367 15.9219 28.4239 18.0582 29.2354 19.9547C30.0975 21.9692 31.8592 23.5507 33.9125 24.2999C33.9968 24.3323 34.0784 24.3596 34.1653 24.3907L34.2794 24.4257C34.3986 24.4633 34.5192 24.5073 34.6423 24.5346C40.3215 25.6248 41.8589 21.6334 42.2724 21.0462C40.9204 22.9777 38.6531 23.4418 35.8712 22.769C35.6294 22.71 35.3913 22.6364 35.1583 22.5486L35.2011 22.5629C34.9111 22.4625 34.6272 22.3457 34.3507 22.2129L34.3999 22.2349C33.8684 21.9756 33.4121 21.6956 32.9882 21.3742C30.5019 19.4945 28.9645 15.9154 30.5875 13L29.7151 14.2017Z" fill="#1266A9"/>
</svg>
