<svg width="57" height="56" viewBox="0 0 57 56" fill="none" xmlns="http://www.w3.org/2000/svg">
<path d="M43.7989 12.4445H12.514V43.5556H43.7989V12.4445Z" fill="#F7DF1E"/>
<path d="M33.5295 36.7502C34.1597 37.7734 34.9795 38.5255 36.4296 38.5255C37.6477 38.5255 38.4258 37.92 38.4258 37.0835C38.4258 36.081 37.6263 35.726 36.2855 35.1427L35.5506 34.8292C33.4292 33.9304 32.0199 32.8045 32.0199 30.4242C32.0199 28.2316 33.6998 26.5625 36.3253 26.5625C38.1944 26.5625 39.5382 27.2094 40.5065 28.9032L38.2173 30.365C37.7132 29.4662 37.1695 29.1121 36.3253 29.1121C35.4642 29.1121 34.9184 29.6553 34.9184 30.365C34.9184 31.242 35.4647 31.5971 36.726 32.1403L37.461 32.4534C39.9588 33.5185 41.3691 34.6045 41.3691 37.046C41.3691 39.6781 39.2899 41.12 36.4976 41.12C33.7674 41.12 32.0035 39.8262 31.1404 38.1304L33.5295 36.7502ZM23.1444 37.0035C23.6062 37.8183 24.0263 38.5072 25.0364 38.5072C26.0022 38.5072 26.6116 38.1314 26.6116 36.6702V26.7294H29.5513V36.7097C29.5513 39.7368 27.7666 41.1146 25.1615 41.1146C22.8077 41.1146 21.4446 39.9032 20.7513 38.4442L23.1444 37.0035Z" fill="black"/>
</svg>
