<svg width="56" height="56" viewBox="0 0 56 56" fill="none" xmlns="http://www.w3.org/2000/svg">
<path d="M37.128 38.668C37.408 38.444 37.632 38.22 37.856 37.94C43.344 32.452 43.344 23.604 37.856 18.116C32.368 12.628 23.52 12.628 18.032 18.116C17.808 18.396 17.584 18.62 17.36 18.9L37.128 38.668Z" fill="#5E6AD2"/>
<path d="M35.448 39.9L16.128 20.58C15.736 21.196 15.4 21.812 15.12 22.484L33.544 40.908C34.216 40.628 34.832 40.292 35.448 39.9Z" fill="#5E6AD2"/>
<path d="M31.416 41.636L14.392 24.612C14.168 25.452 14.056 26.292 14 27.132L28.896 42.028C29.736 41.972 30.576 41.86 31.416 41.636Z" fill="#5E6AD2"/>
<path d="M25.816 41.916L14.112 30.212C14.56 33.068 15.848 35.756 18.032 37.996C20.272 40.124 23.016 41.468 25.816 41.916Z" fill="#5E6AD2"/>
</svg>
