<svg width="57" height="56" viewBox="0 0 57 56" fill="none" xmlns="http://www.w3.org/2000/svg">
<g clip-path="url(#clip0_111_2737)">
<path d="M28.3906 11.0952L29.3247 12.8495C29.5347 13.1733 29.7622 13.4598 30.0301 13.7267C30.8122 14.5087 31.5548 15.328 32.222 16.2052C33.8047 18.2833 34.8722 20.5911 35.6345 23.087C36.0917 24.6117 36.34 26.1758 36.3586 27.7573C36.4351 32.4856 34.8142 36.5456 31.5461 39.9198C31.0123 40.4536 30.4414 40.948 29.8289 41.3877C29.5051 41.3877 29.352 41.1394 29.2186 40.9108C28.9703 40.4919 28.8183 40.0139 28.7417 39.5381C28.6269 38.9661 28.5514 38.3941 28.5886 37.8034V37.5366C28.5623 37.4797 28.2769 11.2297 28.3906 11.0952Z" fill="#599636"/>
<path d="M28.3907 11.0372C28.3524 10.9606 28.3141 11.0186 28.2758 11.0558C28.2944 11.4386 28.161 11.7798 27.9521 12.1058C27.7224 12.4295 27.4183 12.6778 27.1132 12.9447C25.4178 14.4125 24.0835 16.1855 23.0149 18.1684C21.593 20.8372 20.8602 23.6973 20.6524 26.7084C20.5572 27.7945 20.9958 31.627 21.3382 32.7328C22.2722 35.6684 23.95 38.1283 26.1233 40.2633C26.6571 40.7773 27.228 41.2542 27.8186 41.7125C27.9903 41.7125 28.0089 41.5594 28.0483 41.4456C28.1236 41.2022 28.181 40.9536 28.22 40.7019L28.6028 37.8428L28.3907 11.0372Z" fill="#6CAC48"/>
<path d="M29.3247 42.5492C29.363 42.1117 29.573 41.7486 29.8016 41.3866C29.5719 41.2914 29.4013 41.1022 29.2678 40.8911C29.153 40.7008 29.0578 40.4722 28.9834 40.2622C28.7166 39.4616 28.6597 38.6216 28.5831 37.8034V37.308C28.488 37.3845 28.4683 38.032 28.4683 38.1283C28.4126 38.993 28.2979 39.8528 28.1249 40.7019C28.068 41.0453 28.0297 41.3877 27.8186 41.6928C27.8186 41.7311 27.8186 41.7694 27.8372 41.8263C28.1806 42.8369 28.2747 43.8661 28.3327 44.915V45.2978C28.3327 45.755 28.3141 45.6587 28.6936 45.8119C28.8467 45.8687 29.0174 45.8884 29.1705 46.0022C29.2853 46.0022 29.3039 45.907 29.3039 45.8305L29.247 45.2016V43.4472C29.2284 43.1409 29.2853 42.8369 29.3236 42.5503L29.3247 42.5492Z" fill="#C2BFBF"/>
</g>
<defs>
<clipPath id="clip0_111_2737">
<rect width="35" height="35" fill="white" transform="translate(11 11)"/>
</clipPath>
</defs>
</svg>
