<svg width="57" height="56" viewBox="0 0 57 56" fill="none" xmlns="http://www.w3.org/2000/svg">
<path fill-rule="evenodd" clip-rule="evenodd" d="M30.8372 12.0076C30.6068 12.0076 30.3914 12.0569 30.195 12.1215C30.6162 12.4061 30.8467 12.7762 30.9638 13.1994C30.9714 13.2563 30.9884 13.2981 30.9959 13.3569C31.0035 13.4157 31.0148 13.4556 31.0148 13.5087C31.0488 14.2394 30.8259 14.3304 30.6672 14.7612C30.4273 15.3173 30.4934 15.9151 30.7806 16.3933C30.8069 16.4573 30.8398 16.5184 30.8788 16.5755C30.5652 14.4766 32.3087 14.1596 32.6299 13.5049C32.6544 12.9318 32.1841 12.5503 31.8119 12.2847C31.4568 12.0683 31.1319 12 30.8372 12V12.0076ZM33.4629 12.482C33.4289 12.6718 33.4553 12.6225 33.444 12.723L33.4251 12.9394L33.3685 13.1387C33.3496 13.2051 33.3269 13.2715 33.3023 13.3379L33.2117 13.5277C33.1871 13.5619 33.1701 13.5941 33.1456 13.6264L33.0964 13.7023L32.9718 13.8674C32.9227 13.9167 32.8811 13.9756 32.8207 14.0192C32.7602 14.0629 32.7224 14.1179 32.6639 14.1596C32.4901 14.2925 32.2917 14.3912 32.1104 14.5164C32.0537 14.5582 31.9971 14.5923 31.9461 14.6417C31.8901 14.6814 31.8377 14.7259 31.7893 14.7745C31.7326 14.8239 31.691 14.8732 31.6382 14.932C31.5853 14.9909 31.5475 15.0402 31.5135 15.0971L31.4001 15.2717L31.3095 15.4615L31.2434 15.6513L31.1867 15.86C31.1791 15.8942 31.1791 15.936 31.1678 15.9682C31.1565 16.0005 31.1602 16.0346 31.1489 16.0669L31.1414 16.2756C31.1414 16.325 31.1414 16.3743 31.1489 16.4275C31.1489 16.4939 31.1565 16.5603 31.1735 16.6362C31.1905 16.7121 31.198 16.7691 31.215 16.8355L31.2811 17.0348C31.3 17.0765 31.3227 17.1183 31.3378 17.1486L29.4375 16.4085L28.4798 16.1618L27.9584 16.0365C27.4612 15.937 26.9594 15.8622 26.4548 15.8126C26.4359 15.8126 26.4303 15.805 26.4133 15.805L24.9342 15.7291L23.8518 15.7708C23.3475 15.805 22.8431 15.8695 22.3406 15.953L21.9685 16.0195L21.2243 16.1846L20.8521 16.2832L20.497 16.4408L20.225 16.566C20.2061 16.5736 20.191 16.5736 20.1834 16.585L19.953 16.6988C19.9284 16.7064 19.9114 16.7178 19.8963 16.7235L19.6394 16.8564C19.5827 16.881 19.5261 16.9133 19.4751 16.9399C19.4505 16.9588 19.4184 16.9721 19.3995 16.9816L19.1842 17.1069C19.1158 17.1448 19.0496 17.1867 18.9858 17.2321L18.8215 17.346L18.6402 17.4788L18.5004 17.5927C18.4815 17.6003 18.4664 17.6174 18.4513 17.6269L18.3266 17.735C18.319 17.754 18.302 17.7597 18.2926 17.7692L18.1415 17.9096L17.9771 18.0671L17.8373 18.219C17.8184 18.2379 17.7958 18.2531 17.7807 18.2683C17.7363 18.3203 17.6896 18.3703 17.6409 18.4182C17.6333 18.4372 17.6163 18.4429 17.6069 18.46L17.418 18.6592L16.9722 19.09C16.8211 19.2229 16.6662 19.3481 16.5094 19.4544L16.0145 19.7694C15.8501 19.8605 15.6745 19.944 15.4931 20.0161C15.3176 20.0912 15.1386 20.1577 14.9567 20.2154C14.6091 20.2913 14.254 20.4317 13.9479 20.4564C13.8818 20.4564 13.8082 20.4754 13.7402 20.4811L13.5324 20.5304L13.334 20.6063C13.2664 20.6333 13.2002 20.6637 13.1357 20.6974C13.079 20.7392 13.011 20.7733 12.9543 20.8113C12.8977 20.8492 12.841 20.9024 12.79 20.9517C12.739 21.0011 12.6767 21.0504 12.6257 21.1035L12.4859 21.2687C12.4443 21.3351 12.3952 21.3939 12.3612 21.4584C12.318 21.5193 12.2795 21.5833 12.246 21.6501L12.1553 21.8664L12.0798 22.0828L12.0382 22.2821C12.0136 22.3807 12.0136 22.4813 12.0042 22.5288C11.9948 22.5762 12.0042 22.6388 12.0042 22.6977C12.0026 22.7339 12.0051 22.7702 12.0118 22.8058C12.0193 22.8628 12.0306 22.914 12.0458 22.9633L12.1024 23.1152C12.127 23.1721 12.1591 23.2233 12.1931 23.2727L12.3008 23.4245L12.4405 23.5573C12.489 23.606 12.5414 23.6505 12.5973 23.6902C12.7957 23.8648 12.8429 23.9217 13.1017 24.0546C13.1432 24.0792 13.1848 24.0963 13.2339 24.121C13.2585 24.1457 13.2585 24.1532 13.2679 24.1703C13.2755 24.2367 13.2925 24.3032 13.3095 24.3696C13.3253 24.4379 13.3474 24.5047 13.3756 24.5689L13.4417 24.7207C13.4493 24.7397 13.4606 24.7548 13.4663 24.7624L13.5645 24.9446L13.6892 25.1192L13.8289 25.2767C13.8781 25.3261 13.9272 25.3678 13.9857 25.4172L14.1501 25.5424C14.2067 25.5842 14.2634 25.6183 14.3314 25.6506C14.3925 25.6859 14.4563 25.7164 14.5222 25.7417C14.5713 25.7663 14.6299 25.7834 14.6865 25.7986C14.7432 25.8138 14.7942 25.8328 14.8263 25.8404C14.8018 26.2882 14.7923 26.7133 14.8603 26.8613C14.9359 27.0264 15.2986 26.5197 15.6612 25.9409C15.6121 26.5141 15.5781 27.1859 15.6612 27.3832C15.7444 27.5806 16.2468 26.9429 16.6775 26.2294C22.5333 24.8687 27.8791 28.9356 28.4401 34.6782C28.3325 33.7825 27.235 33.2834 26.7306 33.4067C26.485 34.0216 26.0619 34.8111 25.3838 35.2988C25.4404 34.7484 25.4159 34.1867 25.3007 33.6382C25.1159 34.4022 24.7664 35.1161 24.2768 35.7296C23.4929 35.7865 22.709 35.4069 22.2934 34.8338C22.2594 34.8092 22.2519 34.7579 22.2273 34.7257L22.1612 34.5511C22.1366 34.4941 22.1196 34.4372 22.1121 34.3765C22.1045 34.3157 22.1045 34.2626 22.1045 34.1943V34.069C22.1121 34.0121 22.1291 33.9552 22.1461 33.8944L22.2028 33.7198C22.2368 33.6629 22.2594 33.606 22.301 33.5452C22.4408 33.1657 22.4408 32.8241 22.1876 32.6343C22.1385 32.6002 22.0894 32.5774 22.0309 32.5508C21.9969 32.5432 21.9553 32.5262 21.9232 32.5167L21.8571 32.492L21.6833 32.4502C21.6268 32.4338 21.5683 32.4255 21.5095 32.4256C21.4495 32.4158 21.3889 32.41 21.3282 32.4085C21.2866 32.4085 21.245 32.4161 21.2035 32.4161C21.1422 32.4156 21.0811 32.4239 21.0221 32.4408L20.8484 32.473L20.6746 32.5299L20.5102 32.6059L20.3534 32.6894C18.4267 33.9514 19.579 36.9024 20.8899 37.7602C20.395 37.8513 19.8888 37.9594 19.7509 38.0676C20.0909 38.2991 20.4611 38.4851 20.8502 38.6407L22.1876 39.0203C22.8733 39.1721 23.5666 39.2195 24.2693 39.1778C26.0542 39.0465 27.7411 38.3069 29.0508 37.0815C30.3606 35.8561 31.2147 34.2183 31.4719 32.4389L31.521 32.6552L31.5966 33.1201L31.6306 33.3441L31.6495 33.5908L31.6684 33.8641V33.9969C31.6684 34.0387 31.6759 34.088 31.6759 34.1298C31.6759 34.1715 31.6684 34.2284 31.6684 34.2816V34.3954C31.6684 34.4524 31.6608 34.5036 31.6608 34.5605C31.6608 34.5928 31.6608 34.627 31.6533 34.6687L31.6457 34.8509C31.6382 34.8756 31.6382 34.9002 31.6382 34.9268L31.6136 35.1166C31.6136 35.1413 31.6136 35.1659 31.606 35.1925L31.5739 35.4335V35.4525L31.5248 35.684L31.4757 35.9307L31.4096 36.1888L31.3435 36.4469L31.2604 36.7126L31.079 37.1946L30.9808 37.4357L30.8675 37.6672C30.8599 37.6918 30.8486 37.7089 30.8429 37.7241C30.2894 38.8362 29.4961 39.7927 28.5044 40.5366C28.4382 40.5783 28.3721 40.6277 28.306 40.677C28.2871 40.696 28.2645 40.7017 28.2493 40.7188L28.068 40.844L28.0926 40.8934H28.1001L28.4477 40.844H28.4552L29.0975 40.7302C29.1542 40.7226 29.2222 40.7055 29.2788 40.6884L29.3922 40.6637L29.566 40.6315L29.7171 40.5897C30.5426 40.3905 31.3416 40.1153 32.1123 39.7927C30.7995 41.5955 29.0389 43.0454 26.9818 44C27.932 43.9336 28.8821 43.7761 29.7964 43.5104C33.1248 42.5235 35.9261 40.2747 37.6035 37.244C37.2634 39.1655 36.5048 40.9878 35.3821 42.5805C36.183 42.0491 36.9178 41.4361 37.5884 40.7396C39.4373 38.8002 40.6509 36.3386 41.066 33.6857C41.3494 34.9951 41.4287 36.3501 41.3059 37.6862C47.2694 29.3284 41.8008 20.6633 39.5114 18.3822C39.5038 18.3632 39.4925 18.3575 39.4925 18.3404C39.4736 18.4391 39.4679 18.5397 39.4604 18.6384C39.4358 18.8281 39.4113 19.0122 39.3773 19.1944C39.3433 19.3766 39.2866 19.5588 39.2375 19.7448C39.1884 19.9307 39.1128 20.1015 39.0391 20.2761C38.9655 20.4507 38.8824 20.6177 38.7936 20.7828C38.7025 20.9452 38.6036 21.1029 38.497 21.2554C38.3893 21.4129 38.2741 21.5628 38.157 21.7032C38.0337 21.8477 37.9039 21.9864 37.7679 22.1188C37.6848 22.1948 37.6111 22.2593 37.528 22.3276L37.3391 22.4927C37.1915 22.6103 37.037 22.7186 36.8763 22.8172C36.7185 22.9194 36.5559 23.0138 36.3889 23.1C36.2151 23.1835 36.0413 23.2575 35.8676 23.3315C35.6917 23.3984 35.5126 23.4567 35.3311 23.5061C35.1498 23.5554 34.959 23.5972 34.7776 23.6314C34.5963 23.6655 34.3998 23.6807 34.2166 23.6978C34.0844 23.7054 33.9521 23.7168 33.8388 23.7168C33.6499 23.7168 33.461 23.6978 33.2778 23.6826C33.0946 23.6674 32.9 23.6408 32.7149 23.5991C32.5274 23.565 32.3425 23.5181 32.1614 23.4587H32.1538C32.3352 23.4397 32.5165 23.4245 32.7016 23.3922C32.8868 23.36 33.0738 23.3163 33.2551 23.267C33.4365 23.2176 33.6178 23.1588 33.7916 23.0924C33.9654 23.026 34.1467 22.9406 34.3129 22.8609C34.4822 22.7779 34.6474 22.6867 34.8078 22.5876C34.9646 22.4794 35.1214 22.3712 35.2706 22.2555C35.4187 22.1398 35.5593 22.0149 35.6919 21.8816C35.8317 21.7564 35.9563 21.6159 36.081 21.4755C36.2057 21.3351 36.3209 21.1776 36.4286 21.0276C36.4475 21.003 36.4626 20.9707 36.4777 20.9441L36.7176 20.5646C36.8083 20.3995 36.8914 20.2325 36.9632 20.0579C37.0349 19.8833 37.1029 19.7087 37.1615 19.5265C37.2201 19.3443 37.2597 19.1697 37.3013 18.9875C37.3428 18.8054 37.3674 18.6137 37.3844 18.4315C37.4014 18.2493 37.4165 18.052 37.4165 17.8679C37.4165 17.735 37.409 17.6022 37.3976 17.4883C37.3787 17.2985 37.3561 17.1145 37.3315 16.9323C37.2986 16.7451 37.257 16.5595 37.2068 16.3762C37.1502 16.2016 37.0935 16.0195 37.0255 15.8449C36.9575 15.6703 36.8744 15.4957 36.795 15.3325C36.7157 15.1693 36.6137 15.0004 36.5117 14.8428C36.4097 14.6853 36.2964 14.5354 36.1811 14.3874L35.8033 13.9642C35.7336 13.8932 35.6617 13.8242 35.588 13.7573C35.2179 13.4683 34.8346 13.1966 34.4395 12.9432C34.3828 12.9109 34.3318 12.8863 34.2752 12.8597C34.0031 12.6851 33.7462 12.594 33.4912 12.5105L33.4629 12.482Z" fill="#EA2845"/>
</svg>
