<svg width="57" height="56" viewBox="0 0 57 56" fill="none" xmlns="http://www.w3.org/2000/svg">
<path d="M26.8422 12.3319C27.6136 11.8904 28.6184 11.8884 29.3891 12.3319C33.2667 14.5229 37.1455 16.7105 41.0224 18.9029C41.7516 19.3136 42.2393 20.1252 42.2319 20.9654V34.1474C42.2373 35.0224 41.7014 35.8533 40.9321 36.2548C37.0672 38.4337 33.2044 40.6153 29.3403 42.7943C28.5529 43.2445 27.528 43.2098 26.7652 42.7227C25.6065 42.051 24.4459 41.3827 23.2871 40.7116C23.0503 40.5705 22.7834 40.4581 22.6162 40.2285C22.764 40.0293 23.0282 40.0045 23.243 39.9175C23.7266 39.7637 24.1708 39.5168 24.6152 39.2773C24.7275 39.2004 24.8647 39.2299 24.9724 39.2987C25.9632 39.8668 26.9452 40.4514 27.9394 41.014C28.1515 41.1365 28.3662 40.9739 28.5475 40.8728C32.34 38.7294 36.1373 36.594 39.9292 34.4498C40.0697 34.3822 40.1474 34.2331 40.1359 34.0792C40.1386 29.7307 40.1366 25.3814 40.1373 21.033C40.1533 20.8583 40.0523 20.6978 39.8944 20.6263C36.043 18.4573 32.1936 16.285 28.3428 14.1155C28.2761 14.0696 28.1971 14.045 28.1161 14.0449C28.0351 14.0448 27.956 14.0692 27.8892 14.1148C24.0384 16.285 20.1897 18.4593 16.3389 20.6282C16.1816 20.6998 16.076 20.8577 16.0947 21.033C16.0954 25.3814 16.0947 29.7307 16.0947 34.0798C16.088 34.1549 16.1045 34.2303 16.142 34.2957C16.1794 34.3611 16.236 34.4135 16.3041 34.4458C17.3317 35.0285 18.3606 35.6071 19.3889 36.1879C19.9682 36.4997 20.6794 36.6849 21.3177 36.446C21.8809 36.244 22.2757 35.6693 22.2649 35.0713C22.2702 30.7482 22.2623 26.4244 22.2689 22.102C22.2548 21.9101 22.4369 21.7515 22.6235 21.7696C23.1172 21.7663 23.6116 21.7629 24.1054 21.7709C24.3115 21.7663 24.4533 21.9729 24.4278 22.1663C24.4258 26.5167 24.4331 30.8673 24.4245 35.2178C24.4258 36.3772 23.9495 37.6388 22.877 38.2061C21.5558 38.8906 19.9228 38.7454 18.6175 38.0891C17.4875 37.5252 16.4092 36.8596 15.2993 36.2553C14.528 35.8561 13.9947 35.0219 14.0001 34.1475V20.9654C13.992 20.1078 14.4992 19.2815 15.2511 18.8767C19.1152 16.696 22.9787 14.5136 26.8422 12.3319Z" fill="#8CC84B"/>
<path d="M30.2133 21.4632C31.8986 21.3547 33.7028 21.3989 35.2194 22.2292C36.3936 22.8654 37.0445 24.2007 37.0653 25.5052C37.0325 25.6811 36.8485 25.7782 36.6805 25.7661C36.1916 25.7655 35.7025 25.7728 35.2135 25.7628C35.0061 25.7708 34.8855 25.5795 34.8595 25.3962C34.719 24.772 34.3786 24.1538 33.7911 23.8528C32.8893 23.4013 31.8437 23.424 30.8603 23.4334C30.1424 23.4715 29.3704 23.5337 28.7622 23.9558C28.2953 24.2756 28.1535 24.9211 28.3201 25.441C28.4772 25.8143 28.9081 25.9348 29.2607 26.0458C31.2917 26.577 33.444 26.5241 35.4362 27.2232C36.261 27.5082 37.0679 28.0622 37.3502 28.9258C37.7196 30.0832 37.5577 31.4667 36.7342 32.3959C36.0664 33.1606 35.0937 33.5768 34.1237 33.8028C32.8331 34.0906 31.4938 34.0979 30.1833 33.9701C28.9509 33.8296 27.6685 33.5059 26.7171 32.6662C25.9036 31.9598 25.5063 30.8592 25.5457 29.7969C25.5551 29.6175 25.7337 29.4924 25.9056 29.5072C26.398 29.5032 26.8904 29.5019 27.3828 29.5078C27.5795 29.4938 27.7253 29.6637 27.7354 29.8491C27.8263 30.4438 28.0497 31.068 28.5683 31.4205C29.5691 32.0662 30.8248 32.022 31.9707 32.04C32.9201 31.9979 33.9858 31.9852 34.7605 31.3577C35.1693 30.9998 35.2904 30.401 35.1799 29.8859C35.0603 29.451 34.6053 29.2483 34.2146 29.1158C32.2096 28.4816 30.0333 28.7117 28.0478 27.9945C27.2417 27.7096 26.4622 27.171 26.1525 26.3429C25.7203 25.1708 25.9183 23.721 26.8281 22.8232C27.7152 21.9301 28.9958 21.5862 30.2133 21.4631V21.4632Z" fill="#8CC84B"/>
</svg>
