<svg width="56" height="56" viewBox="0 0 56 56" fill="none" xmlns="http://www.w3.org/2000/svg">
<g clip-path="url(#clip0_113_118)">
<path d="M14.8051 14.2936L31.405 13.0675C33.4441 12.8926 33.9679 13.0105 35.2501 13.9426L40.549 17.6755C41.4229 18.3175 41.7139 18.4924 41.7139 19.1914V39.6643C41.7139 40.9474 41.248 41.7064 39.6169 41.8222L20.3401 42.9898C19.1161 43.0477 18.5332 42.8728 17.8921 42.0559L13.99 36.9817C13.2901 36.0478 13 35.3488 13 34.5316V16.3336C13 15.2845 13.4659 14.4097 14.8051 14.2936Z" fill="white"/>
<path fill-rule="evenodd" clip-rule="evenodd" d="M31.405 13.0678L14.8051 14.2939C13.4659 14.4097 13 15.2848 13 16.3336V34.5316C13 35.3485 13.2901 36.0475 13.99 36.9817L17.8921 42.0556C18.5332 42.8725 19.1161 43.0477 20.3401 42.9895L39.6172 41.8225C41.2471 41.7064 41.7142 40.9474 41.7142 39.6646V19.1917C41.7142 18.5287 41.4523 18.3376 40.6813 17.7718L35.2501 13.9426C33.9682 13.0105 33.4441 12.8926 31.405 13.0675V13.0678ZM20.776 18.8566C19.2019 18.9625 18.8449 18.9865 17.9509 18.2596L15.6781 16.4518C15.4471 16.2178 15.5632 15.9259 16.1452 15.8677L32.1031 14.7016C33.4432 14.5846 34.141 15.0517 34.6651 15.4597L37.402 17.4427C37.519 17.5018 37.81 17.8507 37.4599 17.8507L20.98 18.8428L20.776 18.8566ZM18.9409 39.4897V22.1098C18.9409 21.3508 19.174 21.0007 19.8718 20.9419L38.8 19.8337C39.442 19.7758 39.7321 20.1838 39.7321 20.9416V38.2057C39.7321 38.9647 39.6151 39.6067 38.5672 39.6646L20.4541 40.7146C19.4062 40.7725 18.9412 40.4236 18.9412 39.4897H18.9409ZM36.8209 23.0416C36.937 23.5666 36.8209 24.0916 36.2959 24.1516L35.4229 24.3247V37.1566C34.6648 37.5646 33.967 37.7977 33.3838 37.7977C32.4517 37.7977 32.2189 37.5058 31.5208 36.6316L25.8118 27.6496V36.3397L27.6178 36.7486C27.6178 36.7486 27.6178 37.7986 26.1607 37.7986L22.1437 38.0317C22.0267 37.7977 22.1437 37.2148 22.5508 37.0987L23.5999 36.8077V25.3177L22.144 25.1998C22.027 24.6748 22.318 23.9167 23.134 23.8579L27.4441 23.5678L33.3841 32.6659V24.6169L31.87 24.4429C31.753 23.8 32.2189 23.3329 32.8009 23.2759L36.8209 23.0416Z" fill="black"/>
</g>
<defs>
<clipPath id="clip0_113_118">
<rect width="30" height="30" fill="white" transform="translate(13 13)"/>
</clipPath>
</defs>
</svg>
