<svg width="57" height="56" viewBox="0 0 57 56" fill="none" xmlns="http://www.w3.org/2000/svg">
<path d="M14.998 16L23.5239 30.354L23.5314 23.8567L28.4785 31.5897L23.3883 39.5894L14.9503 25.8958L14.9309 40.2319H9V16H14.998ZM29.4548 22.7745L31.9231 26.65L31.9545 26.7036C33.5675 24.2495 36.3079 22.7725 39.2447 22.7745C44.0051 22.7745 47.8759 26.8037 47.9702 31.5471L47.9719 31.7074H47.9674L47.9673 31.7676C47.9587 32.1615 47.7483 32.5247 47.4084 32.7278C47.0564 32.9381 46.6188 32.9447 46.2607 32.745C45.9149 32.5521 45.6937 32.1953 45.6734 31.8019L45.672 31.7596L45.6713 31.7051C45.6523 30.9549 45.2397 30.6505 44.6979 30.426L44.6177 30.3937L44.5359 30.3623L44.4526 30.3315L44.0203 30.178L43.9319 30.1457L43.8434 30.1121L43.7549 30.0772C43.7402 30.0713 43.7255 30.0653 43.7107 30.0592L43.6226 30.0217L43.5349 29.9821C43.1852 29.8195 42.8509 29.6017 42.585 29.2555L42.5539 29.2138L42.5229 29.1704L42.4765 29.1022L42.4143 29.0063L42.2178 28.6918L42.1463 28.5809L42.0898 28.4966L42.0505 28.4401L41.9892 28.3551L41.9464 28.2984L41.902 28.2418C41.8944 28.2324 41.8868 28.223 41.8791 28.2136L41.8321 28.1575C41.3688 27.6163 40.644 27.1299 39.2417 27.1299C38.0822 27.1295 36.9699 27.59 36.15 28.41C35.33 29.2299 34.8696 30.3421 34.87 31.5017C34.8732 31.667 34.9123 31.8295 34.9845 31.9778L35.0071 32.0219L40.224 40.2319H34.4705L31.9231 36.3877L29.4205 40.2319H23.6685L29.1597 31.5867L23.5329 22.7745H29.4548ZM47.9778 32.9446C48.0363 33.3532 47.9785 33.7701 47.8109 34.1474C47.6096 34.6133 47.3256 34.6976 47.1364 34.6932L47.1049 34.6917L47.0755 34.6887L47.0483 34.6846L47.0122 34.6773L46.9823 34.6693L46.9438 34.656L46.9298 34.6495L46.9128 34.64L46.8873 34.6241L46.8668 34.61L46.8443 34.5931L46.8204 34.5735C46.8163 34.57 46.8123 34.5663 46.8082 34.5626L46.7836 34.5388C46.6773 34.4297 46.582 34.2433 46.7511 33.9835C46.8762 33.7903 47.0494 33.682 47.2306 33.5847L47.4136 33.488C47.6328 33.3697 47.8442 33.2316 47.9778 32.9446ZM29.4697 16V22.1604L29.4563 22.229H23.5329L23.5314 22.1604L23.5388 16H29.4697Z" fill="#012F55"/>
<path d="M38.6112 28.9469C37.1922 28.92 35.9102 29.79 35.411 31.1186C36.242 29.876 37.8242 29.3767 39.2179 29.9173C39.8618 30.1796 40.7084 30.6029 41.3792 30.3764C40.7413 29.4811 39.7105 28.9488 38.6112 28.9469Z" fill="#96D8E9"/>
<path d="M45.3321 31.8624C45.3321 31.1365 44.9371 30.9681 44.1173 30.67C43.5091 30.4583 42.819 30.2198 42.3167 29.564C42.2183 29.4343 42.1274 29.2882 42.0305 29.1332C41.8135 28.7317 41.5192 28.3771 41.1645 28.0898C40.686 27.7381 40.0585 27.5666 39.2447 27.5666C37.6117 27.5678 36.1405 28.5535 35.5183 30.0633C36.3049 28.9719 37.612 28.3806 38.9511 28.5104C40.2901 28.6402 41.4593 29.4716 42.0216 30.6938C42.3025 31.1573 42.8565 31.3787 43.3795 31.2364C44.1799 31.065 44.1247 31.8222 45.3336 32.0785L45.3321 31.8624Z" fill="#48C4E5"/>
</svg>
