<svg width="56" height="56" viewBox="0 0 56 56" fill="none" xmlns="http://www.w3.org/2000/svg">
<g clip-path="url(#clip0_113_127)">
<g style="mix-blend-mode:multiply" opacity="0.2">
<path d="M21.965 36.5C21.6128 36.5038 21.2716 36.6229 20.9936 36.8392C20.7156 37.0555 20.5162 37.357 20.426 37.6975C20.3357 38.038 20.3597 38.3986 20.4941 38.7242C20.6284 39.0498 20.8659 39.3223 21.17 39.5L26.85 42.72C27.3178 42.9859 27.8469 43.1255 28.385 43.125C28.6745 43.1248 28.9625 43.0827 29.24 43L37.785 40.565C38.4224 40.3819 38.983 39.9966 39.3825 39.4673C39.782 38.938 39.9987 38.2932 40 37.63V36.5H21.965Z" fill="white"/>
</g>
<g style="mix-blend-mode:multiply" opacity="0.12">
<path d="M21.965 36.5C21.6128 36.5038 21.2716 36.6229 20.9936 36.8392C20.7156 37.0555 20.5162 37.357 20.426 37.6975C20.3357 38.038 20.3597 38.3986 20.4941 38.7242C20.6284 39.0498 20.8659 39.3223 21.17 39.5L26.85 42.72C27.3178 42.9859 27.8469 43.1255 28.385 43.125C28.6745 43.1248 28.9625 43.0827 29.24 43L37.785 40.565C38.4224 40.3819 38.983 39.9966 39.3825 39.4673C39.782 38.938 39.9987 38.2932 40 37.63V36.5H21.965Z" fill="white"/>
</g>
<path d="M29.205 13L31.5 18.25V36.5L29.24 43L37.785 40.565C38.4224 40.3819 38.983 39.9966 39.3825 39.4673C39.782 38.938 39.9987 38.2932 40 37.63V18.37C40.0003 17.7051 39.7837 17.0583 39.383 16.5277C38.9824 15.9971 38.4196 15.6117 37.78 15.43L29.205 13Z" fill="url(#paint0_linear_113_127)"/>
<path d="M18.37 36.305L20.87 34.955C21.2129 34.7666 21.4987 34.4893 21.6975 34.1524C21.8963 33.8155 22.0008 33.4312 22 33.04V23.215C22.0005 22.7675 22.1383 22.3309 22.395 21.9642C22.6516 21.5976 23.0147 21.3186 23.435 21.165L31.5 18.25V16.035C31.4991 15.3485 31.2746 14.6809 30.8605 14.1334C30.4464 13.5858 29.8653 13.1879 29.205 13C28.9238 12.9193 28.6326 12.8788 28.34 12.88C27.7897 12.8813 27.249 13.0242 26.77 13.295L17.54 18.56C17.0723 18.8265 16.6834 19.2121 16.413 19.6775C16.1425 20.1429 16 20.6717 16 21.21V34.89C15.9993 35.1684 16.071 35.4423 16.2082 35.6846C16.3453 35.9269 16.5432 36.1294 16.7822 36.2721C17.0213 36.4148 17.2934 36.4929 17.5718 36.4987C17.8501 36.5045 18.1252 36.4377 18.37 36.305Z" fill="url(#paint1_linear_113_127)"/>
<path d="M31.5 36.5H21.965C21.6128 36.5038 21.2716 36.6229 20.9936 36.8392C20.7156 37.0555 20.5162 37.357 20.426 37.6975C20.3357 38.038 20.3597 38.3986 20.4941 38.7242C20.6284 39.0498 20.8659 39.3223 21.17 39.5L26.85 42.72C27.3178 42.9859 27.8469 43.1255 28.385 43.125C28.6745 43.1248 28.9625 43.0827 29.24 43C29.8922 42.8147 30.4661 42.4213 30.874 41.8797C31.282 41.3381 31.5018 40.6781 31.5 40V36.5Z" fill="url(#paint2_linear_113_127)"/>
<path d="M18.37 36.305L20.87 34.955C21.2129 34.7666 21.4987 34.4893 21.6975 34.1524C21.8963 33.8155 22.0008 33.4312 22 33.04V23.215C22.0005 22.7675 22.1383 22.3309 22.395 21.9642C22.6516 21.5976 23.0147 21.3186 23.435 21.165L31.5 18.25V16.035C31.4991 15.3485 31.2746 14.6809 30.8605 14.1334C30.4464 13.5858 29.8653 13.1879 29.205 13C28.9238 12.9193 28.6326 12.8788 28.34 12.88C27.7897 12.8813 27.249 13.0242 26.77 13.295L17.54 18.56C17.0723 18.8265 16.6834 19.2121 16.413 19.6775C16.1425 20.1429 16 20.6717 16 21.21V34.89C15.9993 35.1684 16.071 35.4423 16.2082 35.6846C16.3453 35.9269 16.5432 36.1294 16.7822 36.2721C17.0213 36.4148 17.2934 36.4929 17.5718 36.4987C17.8501 36.5045 18.1252 36.4377 18.37 36.305Z" fill="url(#paint3_linear_113_127)"/>
<path d="M31.5 36.5H21.965C21.6128 36.5038 21.2716 36.6229 20.9936 36.8392C20.7156 37.0555 20.5162 37.357 20.426 37.6975C20.3357 38.038 20.3597 38.3986 20.4941 38.7242C20.6284 39.0498 20.8659 39.3223 21.17 39.5L26.85 42.72C27.3178 42.9859 27.8469 43.1255 28.385 43.125C28.6745 43.1248 28.9625 43.0827 29.24 43C29.8922 42.8147 30.4661 42.4213 30.874 41.8797C31.282 41.3381 31.5018 40.6781 31.5 40V36.5Z" fill="url(#paint4_linear_113_127)"/>
</g>
<defs>
<linearGradient id="paint0_linear_113_127" x1="34.6" y1="11.29" x2="34.6" y2="40.9" gradientUnits="userSpaceOnUse">
<stop stop-color="#FFB900"/>
<stop offset="0.17" stop-color="#EF8400"/>
<stop offset="0.31" stop-color="#E25C01"/>
<stop offset="0.43" stop-color="#DB4401"/>
<stop offset="0.5" stop-color="#D83B01"/>
</linearGradient>
<linearGradient id="paint1_linear_113_127" x1="29.26" y1="12.335" x2="13.58" y2="34.725" gradientUnits="userSpaceOnUse">
<stop stop-color="#800600"/>
<stop offset="0.6" stop-color="#C72127"/>
<stop offset="0.73" stop-color="#C13959"/>
<stop offset="0.85" stop-color="#BC4B81"/>
<stop offset="0.94" stop-color="#B95799"/>
<stop offset="1" stop-color="#B85BA2"/>
</linearGradient>
<linearGradient id="paint2_linear_113_127" x1="21.25" y1="39.815" x2="41.72" y2="39.815" gradientUnits="userSpaceOnUse">
<stop stop-color="#F32B44"/>
<stop offset="0.6" stop-color="#A4070A"/>
</linearGradient>
<linearGradient id="paint3_linear_113_127" x1="29.58" y1="11.88" x2="26.26" y2="16.62" gradientUnits="userSpaceOnUse">
<stop stop-opacity="0.4"/>
<stop offset="1" stop-opacity="0"/>
</linearGradient>
<linearGradient id="paint4_linear_113_127" x1="35.16" y1="40.275" x2="25.995" y2="39.475" gradientUnits="userSpaceOnUse">
<stop stop-opacity="0.4"/>
<stop offset="1" stop-opacity="0"/>
</linearGradient>
<clipPath id="clip0_113_127">
<rect width="32" height="32" fill="white" transform="translate(12 12)"/>
</clipPath>
</defs>
</svg>
