<svg width="57" height="56" viewBox="0 0 57 56" fill="none" xmlns="http://www.w3.org/2000/svg">
<path d="M43.2069 31.0807C43.025 30.5314 42.5486 30.1488 41.9324 30.0569C41.6419 30.0137 41.3092 30.0321 40.9154 30.1131C40.2291 30.2543 39.72 30.308 39.3484 30.3184C40.751 27.957 41.8914 25.2642 42.548 22.7293C43.6097 18.6305 43.0423 16.7632 42.3794 15.9186C40.6249 13.683 38.0651 12.4821 34.977 12.4453C33.3296 12.4252 31.8834 12.7496 31.129 12.9828C30.4266 12.8592 29.6713 12.7902 28.8788 12.7775C27.3933 12.7538 26.0808 13.0768 24.9592 13.7405C24.3384 13.5311 23.3418 13.2359 22.191 13.0476C19.4845 12.6045 17.303 12.9498 15.7074 14.0738C13.7753 15.4348 12.8796 17.7994 13.0453 21.1019C13.0979 22.1504 13.6861 25.3407 14.6122 28.3663C15.1445 30.1054 15.7121 31.5495 16.2992 32.659C17.1318 34.2323 18.0228 35.1588 19.0229 35.4916C19.5835 35.6778 20.6021 35.8082 21.6734 34.9185C21.8091 35.0825 21.9903 35.2454 22.2307 35.3968C22.5361 35.5888 22.9095 35.7457 23.2824 35.8387C24.6262 36.1737 25.8849 36.0899 26.9588 35.6203C26.9654 35.8108 26.9705 35.9928 26.9748 36.1499C26.9819 36.4048 26.989 36.6547 26.9984 36.8884C27.062 38.4687 27.1698 39.6974 27.4893 40.5571C27.5068 40.6044 27.5304 40.6765 27.5553 40.7529C27.7146 41.2395 27.9811 42.0541 28.6591 42.692C29.3612 43.3529 30.2104 43.5556 30.9882 43.5556C31.3783 43.5556 31.7505 43.5045 32.0769 43.4348C33.2405 43.1861 34.562 42.8073 35.518 41.4498C36.4219 40.1666 36.8612 38.2339 36.9407 35.1886C36.9511 35.1025 36.9605 35.0202 36.9697 34.9419L36.9886 34.7809L37.2015 34.7996L37.2564 34.8033C38.4416 34.8572 39.8907 34.6065 40.7807 34.1943C41.4839 33.8689 43.7375 32.6824 43.2069 31.0807Z" fill="black"/>
<path d="M41.1806 31.3922C37.6566 32.1171 37.4143 30.9273 37.4143 30.9273C41.135 25.4219 42.6904 18.4336 41.3482 16.7233C37.6864 12.0578 31.3477 14.2643 31.2419 14.3215L31.2079 14.3276C30.5116 14.1835 29.7325 14.0977 28.8567 14.0834C27.2623 14.0574 26.0528 14.5002 25.1349 15.1943C25.1349 15.1943 13.8273 10.549 14.3532 21.0366C14.4651 23.2677 17.5601 37.9183 21.2516 33.4932C22.6009 31.875 23.9046 30.5068 23.9046 30.5068C24.5521 30.9357 25.3272 31.1545 26.1398 31.076L26.203 31.0226C26.1833 31.2234 26.1923 31.4199 26.2282 31.6526C25.2772 32.7121 25.5567 32.8981 23.6557 33.2884C21.732 33.6837 22.862 34.3875 23.5999 34.5716C24.4944 34.7946 26.5637 35.1105 27.9619 33.1586L27.9062 33.3814C28.2787 33.679 28.5404 35.3172 28.4965 36.8023C28.4527 38.2873 28.4234 39.3069 28.7169 40.1033C29.0107 40.8997 29.3032 42.6916 31.8024 42.1577C33.8906 41.7114 34.9728 40.5549 35.1234 38.6259C35.2302 37.2545 35.472 37.4573 35.4872 36.2311L35.6811 35.6507C35.9047 33.7917 35.7167 33.192 37.0032 33.4709L37.316 33.4984C38.2627 33.5412 39.5021 33.3464 40.2296 33.0093C41.7958 32.2845 42.7248 31.0742 41.1803 31.3922H41.1806Z" fill="#336791"/>
<path d="M25.7968 22.0343C25.4792 21.9902 25.1917 22.031 25.0462 22.1409C24.9644 22.2027 24.939 22.2743 24.9322 22.3236C24.9139 22.4541 25.0056 22.5985 25.062 22.673C25.2215 22.8837 25.4545 23.0286 25.6851 23.0605C25.7185 23.0652 25.7518 23.0674 25.7848 23.0674C26.1693 23.0674 26.519 22.7688 26.5498 22.5484C26.5883 22.2724 26.1865 22.0884 25.7968 22.0344V22.0343ZM36.317 22.0431C36.2866 21.8267 35.9006 21.765 35.5342 21.8158C35.1683 21.8666 34.8135 22.0314 34.8432 22.2482C34.8669 22.4168 35.1722 22.7046 35.5336 22.7046C35.5642 22.7046 35.595 22.7026 35.626 22.6982C35.8673 22.6649 36.0443 22.5121 36.1284 22.4241C36.2564 22.2899 36.3306 22.1403 36.317 22.0431Z" fill="white"/>
<path d="M42.3531 31.3098C42.2188 30.9047 41.7863 30.7743 41.0677 30.9223C38.9343 31.3613 38.1703 31.0572 37.9194 30.873C39.5777 28.3538 40.9419 25.3086 41.6778 22.4675C42.0264 21.1217 42.219 19.8718 42.2348 18.853C42.2522 17.7349 42.0612 16.9132 41.6673 16.4112C40.0793 14.3878 37.7485 13.3023 34.9273 13.2726C32.9877 13.2508 31.3489 13.7458 31.0312 13.885C30.3622 13.7191 29.6329 13.6172 28.8389 13.6042C27.3829 13.5807 26.1243 13.9284 25.0822 14.637C24.6296 14.4689 23.4599 14.0685 22.0293 13.8387C19.5561 13.4417 17.5908 13.7425 16.1884 14.7333C14.5149 15.9156 13.7423 18.029 13.892 21.0146C13.9424 22.0191 14.5163 25.1092 15.4221 28.0685C16.6144 31.9635 17.9104 34.1685 19.274 34.6221C19.4336 34.6751 19.6176 34.7122 19.8206 34.7122C20.318 34.7122 20.9279 34.4887 21.5625 33.728C22.3364 32.8021 23.137 31.8988 23.9632 31.019C24.4993 31.3059 25.0882 31.4662 25.6905 31.4822C25.6917 31.4979 25.6932 31.5137 25.6946 31.5293C25.5909 31.6525 25.4894 31.7776 25.3901 31.9044C24.9728 32.4327 24.8859 32.5427 23.5426 32.8185C23.1604 32.8972 22.1455 33.1057 22.1306 33.8152C22.1145 34.5903 23.3303 34.9158 23.4689 34.9503C23.9516 35.0708 24.4167 35.1303 24.8602 35.1303C25.9388 35.1303 26.8881 34.7767 27.6466 34.0927C27.6233 36.856 27.7388 39.5789 28.0716 40.4085C28.3441 41.0876 29.0098 42.7474 31.1125 42.7473C31.4211 42.7473 31.7607 42.7115 32.1343 42.6316C34.3289 42.1625 35.2819 41.1953 35.6505 39.0629C35.8478 37.9232 36.1863 35.2019 36.3456 33.7421C36.6816 33.8467 37.1143 33.8946 37.5819 33.8944C38.5574 33.8944 39.6829 33.6878 40.3888 33.3611C41.1817 32.9938 42.6126 32.0928 42.3531 31.3098ZM37.1269 21.4459C37.1197 21.8768 37.0602 22.268 36.9972 22.6764C36.9293 23.1156 36.8591 23.5697 36.8415 24.1209C36.8241 24.6573 36.8913 25.2151 36.9562 25.7544C37.0875 26.8439 37.2222 27.9654 36.7007 29.0721C36.6141 28.9191 36.5369 28.7609 36.4697 28.5984C36.4048 28.4417 36.2641 28.1901 36.0692 27.8417C35.3109 26.4857 33.5353 23.3103 34.4443 22.0146C34.715 21.6289 35.4022 21.2324 37.1269 21.4459ZM35.0363 14.1452C37.5642 14.2008 39.5638 15.1439 40.9796 16.9479C42.0654 18.3317 40.8697 24.628 37.4082 30.0599C37.3734 30.0158 37.3384 29.9718 37.3033 29.928L37.2594 29.8734C38.1539 28.4003 37.979 26.9428 37.8233 25.6506C37.7593 25.1203 37.6989 24.6194 37.7143 24.1489C37.7302 23.6503 37.7963 23.2225 37.8603 22.809C37.9388 22.2994 38.0188 21.772 37.9968 21.1504C38.0133 21.0851 38.0199 21.0081 38.0112 20.9167C37.955 20.3205 37.2724 18.5364 35.8813 16.9217C35.1204 16.0384 34.0107 15.05 32.4956 14.3834C33.1473 14.2487 34.0384 14.1231 35.0363 14.1452ZM20.891 33.1712C20.1919 34.0094 19.7091 33.8487 19.5503 33.796C18.5159 33.4519 17.3156 31.2717 16.2573 27.8143C15.3416 24.8228 14.8065 21.8145 14.7641 20.971C14.6304 18.3032 15.279 16.444 16.6917 15.4448C18.9909 13.8189 22.7711 14.7921 24.29 15.2856C24.2682 15.3072 24.2455 15.3272 24.2239 15.3491C21.7313 17.8593 21.7904 22.148 21.7966 22.4102C21.7964 22.5113 21.8049 22.6545 21.8165 22.8515C21.8594 23.5729 21.9393 24.9154 21.726 26.4358C21.5279 27.8486 21.9646 29.2314 22.924 30.2297C23.0225 30.332 23.126 30.4293 23.2341 30.5214C22.8071 30.9774 21.8789 31.9861 20.891 33.1712ZM23.5545 29.6272C22.7813 28.8226 22.43 27.7034 22.5908 26.5563C22.816 24.9503 22.7329 23.5515 22.6882 22.8C22.682 22.6948 22.6764 22.6027 22.6732 22.53C23.0373 22.208 24.7248 21.3065 25.9282 21.5814C26.4773 21.7068 26.8119 22.0797 26.951 22.7211C27.6709 26.0417 27.0462 27.4257 26.5443 28.5379C26.4409 28.767 26.3431 28.9836 26.2597 29.2077L26.195 29.3809C26.0312 29.8188 25.8789 30.226 25.7844 30.6126C24.9623 30.6102 24.1626 30.26 23.5545 29.6271V29.6272ZM23.6807 34.1055C23.4407 34.0457 23.2248 33.9418 23.0981 33.8557C23.2039 33.8061 23.3922 33.7385 23.7188 33.6714C25.2991 33.347 25.5432 33.118 26.0762 32.4432C26.1983 32.2884 26.3368 32.1131 26.5287 31.8994L26.5289 31.8992C26.8146 31.5802 26.9453 31.6343 27.1823 31.7324C27.3744 31.8115 27.5615 32.0516 27.6373 32.3158C27.6732 32.4406 27.7135 32.6774 27.5816 32.8617C26.4682 34.4162 24.8459 34.3963 23.6807 34.1055ZM31.9513 41.7802C30.018 42.1932 29.3335 41.2096 28.8824 40.0851C28.5913 39.3591 28.4481 36.0854 28.5497 32.47C28.551 32.4219 28.5441 32.3755 28.5308 32.3318C28.519 32.2455 28.5009 32.1601 28.4768 32.0763C28.3258 31.5503 27.9579 31.1103 27.5165 30.9278C27.3412 30.8554 27.0194 30.7225 26.6326 30.8211C26.7151 30.4822 26.8581 30.0995 27.0132 29.6851L27.0782 29.5109C27.1515 29.3144 27.2434 29.1108 27.3406 28.8952C27.8659 27.7316 28.5852 26.1378 27.8045 22.5371C27.512 21.1884 26.5354 20.5298 25.055 20.6828C24.1675 20.7744 23.3555 21.1315 22.9505 21.3362C22.8634 21.3802 22.7837 21.4227 22.7093 21.4641C22.8224 20.1052 23.2494 17.5658 24.8469 15.959C25.8528 14.9476 27.1923 14.448 28.8245 14.475C32.0403 14.5274 34.1026 16.1731 35.2664 17.5446C36.2693 18.7263 36.8123 19.9168 37.0291 20.5589C35.3992 20.3936 34.2907 20.7144 33.7288 21.5155C32.5063 23.2581 34.3976 26.6403 35.3065 28.2658C35.4733 28.5637 35.6171 28.8212 35.6624 28.9306C35.9584 29.6459 36.3416 30.1235 36.6213 30.4721C36.7071 30.5789 36.7903 30.6825 36.8536 30.773C36.3599 30.9149 35.4733 31.2428 35.5541 32.8818C35.4889 33.7042 35.0255 37.5546 34.79 38.9149C34.4792 40.7121 33.816 41.3815 31.9513 41.7803V41.7802ZM40.0211 32.5713C39.5163 32.8049 38.6716 32.9801 37.8692 33.0178C36.9828 33.0592 36.5316 32.9188 36.4255 32.8324C36.3757 31.8111 36.7569 31.7044 37.1603 31.5914C37.2237 31.5737 37.2856 31.5563 37.3453 31.5355C37.3824 31.5656 37.423 31.5955 37.4676 31.6248C38.18 32.0937 39.4506 32.1443 41.2444 31.775L41.2641 31.7711C41.0221 31.9967 40.6081 32.2994 40.0211 32.5713Z" fill="white"/>
</svg>
