<svg width="57" height="56" viewBox="0 0 57 56" fill="none" xmlns="http://www.w3.org/2000/svg">
<path d="M28.1565 30.7429C29.6798 30.7429 30.9146 29.5149 30.9146 28C30.9146 26.4852 29.6798 25.2572 28.1565 25.2572C26.6332 25.2572 25.3983 26.4852 25.3983 28C25.3983 29.5149 26.6332 30.7429 28.1565 30.7429Z" fill="#61DAFB"/>
<path fill-rule="evenodd" clip-rule="evenodd" d="M15.1876 26.5568C14.5622 27.1183 14.3566 27.6079 14.3566 28C14.3566 28.3922 14.5622 28.8817 15.1876 29.4432C15.8127 30.0043 16.7736 30.5554 18.0463 31.0387C20.5847 32.0025 24.1589 32.6195 28.1564 32.6195C32.1539 32.6195 35.7281 32.0025 38.2665 31.0387C39.5392 30.5554 40.5001 30.0043 41.1252 29.4432C41.7507 28.8817 41.9562 28.3922 41.9562 28C41.9562 27.6079 41.7507 27.1183 41.1252 26.5568C40.5001 25.9957 39.5392 25.4446 38.2665 24.9613C35.7281 23.9975 32.1539 23.3806 28.1564 23.3806C24.1589 23.3806 20.5847 23.9975 18.0463 24.9613C16.7736 25.4446 15.8127 25.9957 15.1876 26.5568ZM17.3364 23.0916C20.1544 22.0216 23.9802 21.3806 28.1564 21.3806C32.3326 21.3806 36.1584 22.0216 38.9764 23.0916C40.382 23.6252 41.5884 24.285 42.4612 25.0685C43.3336 25.8516 43.9562 26.8404 43.9562 28C43.9562 29.1596 43.3336 30.1484 42.4612 30.9315C41.5884 31.715 40.382 32.3748 38.9764 32.9084C36.1584 33.9784 32.3326 34.6195 28.1564 34.6195C23.9802 34.6195 20.1544 33.9784 17.3364 32.9084C15.9308 32.3748 14.7244 31.715 13.8516 30.9315C12.9792 30.1484 12.3566 29.1596 12.3566 28C12.3566 26.8404 12.9792 25.8516 13.8516 25.0685C14.7244 24.285 15.9308 23.6252 17.3364 23.0916Z" fill="#61DAFB"/>
<path fill-rule="evenodd" clip-rule="evenodd" d="M22.9369 16.1117C22.1362 15.8541 21.6043 15.9205 21.2586 16.119C20.9128 16.3175 20.589 16.7424 20.413 17.5607C20.237 18.3792 20.2375 19.4815 20.4529 20.8184C20.8825 23.4849 22.1317 26.8702 24.1298 30.3118C26.128 33.7535 28.4515 36.522 30.5589 38.2252C31.6154 39.0791 32.5751 39.6307 33.3759 39.8884C34.1766 40.146 34.7085 40.0795 35.0542 39.881C35.4 39.6825 35.7238 39.2577 35.8998 38.4393C36.0758 37.6208 36.0753 36.5185 35.8599 35.1817C35.4303 32.5151 34.1811 29.1298 32.1829 25.6882C30.1848 22.2465 27.8613 19.478 25.7539 17.7748C24.6974 16.9209 23.7377 16.3693 22.9369 16.1117ZM27.0146 16.2263C29.3567 18.1193 31.8287 21.0947 33.9174 24.6924C36.0061 28.29 37.3613 31.9067 37.8388 34.8701C38.0769 36.3483 38.1056 37.718 37.8595 38.8618C37.6135 40.0057 37.064 41.0333 36.0584 41.6106C35.0528 42.188 33.8831 42.1474 32.7639 41.7874C31.6448 41.4274 30.4663 40.7178 29.2981 39.7737C26.9561 37.8808 24.4841 34.9053 22.3954 31.3076C20.3067 27.71 18.9514 24.0933 18.474 21.1299C18.2359 19.6517 18.2072 18.282 18.4532 17.1382C18.6993 15.9944 19.2488 14.9667 20.2544 14.3894C21.26 13.812 22.4297 13.8526 23.5488 14.2126C24.668 14.5727 25.8464 15.2822 27.0146 16.2263Z" fill="#61DAFB"/>
<path fill-rule="evenodd" clip-rule="evenodd" d="M35.8998 17.5607C35.7238 16.7423 35.4 16.3175 35.0543 16.119C34.7085 15.9205 34.1766 15.854 33.3759 16.1116C32.5752 16.3693 31.6154 16.9209 30.5589 17.7748C28.4515 19.478 26.128 22.2465 24.1299 25.6882C22.1318 29.1298 20.8825 32.5151 20.4529 35.1816C20.2375 36.5185 20.237 37.6208 20.4131 38.4393C20.5891 39.2576 20.9129 39.6825 21.2586 39.881C21.6044 40.0795 22.1363 40.1459 22.937 39.8883C23.7377 39.6307 24.6974 39.0791 25.754 38.2252C27.8614 36.522 30.1849 33.7535 32.183 30.3118C34.1811 26.8702 35.4304 23.4849 35.86 20.8183C36.0754 19.4815 36.0759 18.3792 35.8998 17.5607ZM37.8388 21.1299C37.3614 24.0933 36.0062 27.71 33.9174 31.3076C31.8287 34.9053 29.3567 37.8807 27.0147 39.7737C25.8465 40.7178 24.668 41.4273 23.5489 41.7874C22.4297 42.1474 21.2601 42.188 20.2544 41.6106C19.2488 41.0333 18.6993 40.0056 18.4533 38.8618C18.2073 37.718 18.2359 36.3483 18.4741 34.8701C18.9515 31.9067 20.3067 28.29 22.3954 24.6924C24.4842 21.0947 26.9561 18.1192 29.2982 16.2263C30.4664 15.2822 31.6449 14.5726 32.764 14.2126C33.8832 13.8526 35.0528 13.812 36.0585 14.3894C37.0641 14.9667 37.6136 15.9943 37.8596 17.1382C38.1056 18.282 38.077 19.6517 37.8388 21.1299Z" fill="#61DAFB"/>
</svg>
