<svg width="57" height="56" viewBox="0 0 57 56" fill="none" xmlns="http://www.w3.org/2000/svg">
<g clip-path="url(#clip0_110_2687)">
<path d="M45.1865 26.7243C45.1865 24.4895 42.3946 22.3717 38.114 21.0583C39.1019 16.685 38.6628 13.2056 36.7283 12.0916C36.2823 11.8303 35.7611 11.7065 35.1917 11.7065V13.24C35.5072 13.24 35.7611 13.3019 35.9737 13.4187C36.9066 13.9551 37.3115 15.9974 36.9958 18.6241C36.9205 19.2705 36.797 19.9512 36.646 20.6457C35.3014 20.3157 33.8334 20.0612 32.29 19.8962C31.364 18.6241 30.4036 17.4689 29.4363 16.4581C31.6726 14.3746 33.7718 13.2331 35.1986 13.2331V11.6997C33.312 11.6997 30.8426 13.0474 28.3456 15.3854C25.8486 13.0612 23.3791 11.7272 21.4927 11.7272V13.2606C22.9126 13.2606 25.0186 14.3952 27.2549 16.4649C26.2945 17.4758 25.3341 18.6241 24.4217 19.8962C22.8714 20.0612 21.4034 20.3157 20.0589 20.6526C19.9011 19.965 19.7845 19.298 19.7021 18.6585C19.3798 16.0317 19.7776 13.9895 20.7038 13.4463C20.9095 13.3225 21.177 13.2675 21.4927 13.2675V11.7341C20.9164 11.7341 20.395 11.8578 19.9423 12.1191C18.0146 13.2331 17.5825 16.7056 18.5771 21.0652C14.3103 22.3854 11.5321 24.4965 11.5321 26.7243C11.5321 28.9592 14.3241 31.0771 18.6046 32.3904C17.6167 36.7638 18.0557 40.243 19.9903 41.357C20.4363 41.6183 20.9575 41.7421 21.5338 41.7421C23.4202 41.7421 25.8898 40.3944 28.3868 38.0564C30.8837 40.3807 33.3533 41.7147 35.2397 41.7147C35.8159 41.7147 36.3373 41.5909 36.7901 41.3295C38.7176 40.2155 39.1499 36.743 38.1551 32.3836C42.4082 31.0702 45.1865 28.9523 45.1865 26.7243ZM36.255 22.1379C36.0012 23.025 35.6856 23.9394 35.3289 24.8539C35.0477 24.3039 34.7527 23.7538 34.4303 23.2036C34.1147 22.6536 33.7785 22.1172 33.4424 21.5946C34.4165 21.739 35.3563 21.9178 36.255 22.1379ZM33.1131 29.4611C32.5781 30.3895 32.0294 31.2696 31.46 32.0879C30.4378 32.1772 29.4021 32.2254 28.3593 32.2254C27.3234 32.2254 26.2876 32.1772 25.2724 32.0947C24.703 31.2764 24.1473 30.4032 23.6122 29.4817C23.0909 28.5809 22.6176 27.6664 22.1854 26.745C22.6107 25.8236 23.0909 24.9021 23.6055 24.0013C24.1405 23.0731 24.6892 22.1929 25.2586 21.3746C26.2808 21.2852 27.3165 21.2371 28.3593 21.2371C29.3952 21.2371 30.431 21.2852 31.4462 21.3677C32.0156 22.186 32.5713 23.0593 33.1063 23.9807C33.6277 24.8815 34.1009 25.796 34.5332 26.7175C34.1009 27.6389 33.6277 28.5603 33.1131 29.4611ZM35.3289 28.5673C35.689 29.4634 36.0049 30.3767 36.2756 31.3039C35.3769 31.5239 34.4303 31.7097 33.4493 31.854C33.7854 31.3246 34.1215 30.7814 34.4372 30.2243C34.7527 29.6743 35.0477 29.1173 35.3289 28.5673ZM28.3729 35.9042C27.735 35.244 27.097 34.5082 26.466 33.7038C27.0834 33.7313 27.7144 33.7519 28.3524 33.7519C28.9973 33.7519 29.6352 33.7382 30.2595 33.7038C29.6707 34.4708 29.0409 35.2054 28.3729 35.9042ZM23.2693 31.854C22.2952 31.7097 21.3554 31.5308 20.4568 31.3108C20.7105 30.4238 21.0262 29.5092 21.3828 28.5946C21.6642 29.1448 21.9591 29.6949 22.2814 30.2449C22.6038 30.7951 22.9332 31.3314 23.2693 31.854ZM28.3387 17.5445C28.9767 18.2046 29.6147 18.9404 30.2457 19.7449C29.6283 19.7174 28.9973 19.6968 28.3593 19.6968C27.7144 19.6968 27.0765 19.7105 26.4523 19.7449C27.0411 18.9779 27.6708 18.2434 28.3387 17.5445ZM23.2624 21.5946C22.9263 22.1241 22.5902 22.6673 22.2747 23.2242C21.9591 23.7744 21.6642 24.3246 21.3828 24.8746C21.0227 23.9784 20.7068 23.0651 20.4362 22.1379C21.3348 21.9247 22.2814 21.739 23.2624 21.5946ZM17.0542 30.2037C14.6259 29.1654 13.055 27.804 13.055 26.7243C13.055 25.6447 14.6259 24.2764 17.0542 23.245C17.6442 22.9905 18.2891 22.7636 18.9545 22.5504C19.3455 23.8982 19.86 25.3009 20.4979 26.7381C19.8669 28.1684 19.3591 29.5642 18.975 30.9052C18.296 30.6919 17.6511 30.4582 17.0542 30.2037ZM20.7449 40.0299C19.8119 39.4936 19.4071 37.4514 19.7228 34.8245C19.7983 34.1783 19.9216 33.4974 20.0726 32.8029C21.4172 33.133 22.8852 33.3875 24.4286 33.5525C25.3546 34.8245 26.315 35.9797 27.2823 36.9906C25.046 39.0742 22.9468 40.2155 21.52 40.2155C21.2113 40.2088 20.9507 40.1468 20.7449 40.0299ZM37.0165 34.7902C37.3388 37.4169 36.941 39.4592 36.0148 40.0024C35.8091 40.1262 35.5416 40.1812 35.2259 40.1812C33.806 40.1812 31.7 39.0466 29.4637 36.9769C30.4241 35.9661 31.3845 34.8178 32.2969 33.5456C33.8472 33.3806 35.3152 33.1261 36.6597 32.7892C36.8175 33.4837 36.941 34.1508 37.0165 34.7902ZM39.6574 30.2037C39.0675 30.4582 38.4226 30.6852 37.7572 30.8983C37.3662 29.5506 36.8517 28.1478 36.2138 26.7106C36.845 25.2803 37.3526 23.8845 37.7367 22.5436C38.4159 22.7567 39.0606 22.9905 39.6643 23.245C42.0927 24.2832 43.6636 25.6447 43.6636 26.7243C43.6567 27.804 42.0858 29.1723 39.6574 30.2037Z" fill="#61DAFB"/>
<path d="M28.3524 30.027C30.0839 30.027 31.4874 28.6201 31.4874 26.8845C31.4874 25.149 30.0839 23.7421 28.3524 23.7421C26.621 23.7421 25.2175 25.149 25.2175 26.8845C25.2175 28.6201 26.621 30.027 28.3524 30.027ZM13.0603 47.3129H12.0254V49.0994H11.4414V44.6831H12.8999C13.3961 44.6831 13.7774 44.7965 14.0437 45.023C14.312 45.2493 14.4461 45.5789 14.4461 46.0116C14.4461 46.2867 14.3715 46.5263 14.2222 46.7306C14.075 46.9348 13.8692 47.0875 13.6049 47.1885L14.6398 49.063V49.0994H14.0165L13.0603 47.3129ZM12.0254 46.8367H12.9181C13.2065 46.8367 13.4355 46.7618 13.6049 46.6122C13.7764 46.4626 13.8621 46.2624 13.8621 46.0116C13.8621 45.7387 13.7804 45.5294 13.617 45.3838C13.4557 45.2382 13.2217 45.1644 12.915 45.1624H12.0254V46.8367ZM16.5341 49.1602C16.0902 49.1602 15.7291 49.0146 15.4507 48.7233C15.1723 48.4301 15.0332 48.0388 15.0332 47.5495V47.4464C15.0332 47.1209 15.0947 46.8307 15.2177 46.5759C15.3428 46.319 15.5163 46.1188 15.7382 45.9753C15.9621 45.8297 16.2042 45.7569 16.4644 45.7569C16.8901 45.7569 17.221 45.8974 17.4569 46.1785C17.693 46.4595 17.8109 46.8619 17.8109 47.3856V47.6192H15.593C15.601 47.9429 15.6948 48.2047 15.8744 48.4049C16.0559 48.603 16.2859 48.7021 16.5643 48.7021C16.762 48.7021 16.9294 48.6617 17.0665 48.5808C17.2038 48.4999 17.3237 48.3928 17.4267 48.2593L17.7686 48.5262C17.4942 48.9488 17.0828 49.1602 16.5341 49.1602ZM16.4644 46.218C16.2385 46.218 16.0489 46.3009 15.8955 46.4666C15.7422 46.6305 15.6474 46.861 15.6111 47.1582H17.2512V47.1158C17.2351 46.8307 17.1584 46.6102 17.0213 46.4545C16.884 46.2969 16.6984 46.218 16.4644 46.218ZM20.4829 49.0994C20.4505 49.0347 20.4243 48.9195 20.4042 48.7536C20.1439 49.0246 19.8333 49.1602 19.4722 49.1602C19.1494 49.1602 18.8842 49.0692 18.6764 48.8871C18.4707 48.7031 18.3677 48.4706 18.3677 48.1895C18.3677 47.8478 18.4969 47.5829 18.7551 47.3949C19.0152 47.2047 19.3804 47.1096 19.8504 47.1096H20.3951V46.8519C20.3951 46.6557 20.3365 46.5 20.2196 46.3848C20.1026 46.2675 19.93 46.2089 19.7021 46.2089C19.5024 46.2089 19.335 46.2593 19.1999 46.3605C19.0648 46.4615 18.9971 46.5839 18.9971 46.7275H18.4343C18.4343 46.5638 18.4918 46.406 18.6067 46.2543C18.7238 46.1007 18.8811 45.9793 19.0789 45.8903C19.2786 45.8014 19.4973 45.7569 19.7354 45.7569C20.1127 45.7569 20.4082 45.8519 20.622 46.0421C20.8358 46.2301 20.9467 46.49 20.9549 46.8215V48.332C20.9549 48.6334 20.9932 48.873 21.0699 49.0509V49.0994H20.4829ZM19.5539 48.6718C19.7294 48.6718 19.8958 48.6263 20.0532 48.5353C20.2104 48.4443 20.3244 48.326 20.3951 48.1804V47.5071H19.9563C19.2705 47.5071 18.9275 47.7082 18.9275 48.1106C18.9275 48.2865 18.9861 48.4241 19.1029 48.5232C19.22 48.6222 19.3703 48.6718 19.5539 48.6718ZM23.1456 48.7021C23.3453 48.7021 23.5199 48.6414 23.6691 48.5201C23.8184 48.3988 23.9011 48.2472 23.9172 48.0651H24.4468C24.4367 48.2531 24.3721 48.4321 24.2531 48.602C24.1341 48.7719 23.9747 48.9074 23.775 49.0084C23.5773 49.1096 23.3676 49.1602 23.1456 49.1602C22.6999 49.1602 22.3448 49.0115 22.0805 48.7143C21.8183 48.4149 21.6872 48.0065 21.6872 47.4888V47.3949C21.6872 47.0753 21.7456 46.7912 21.8626 46.5426C21.9797 46.2938 22.147 46.1007 22.365 45.9632C22.5848 45.8256 22.844 45.7569 23.1425 45.7569C23.5098 45.7569 23.8144 45.8671 24.0565 46.0876C24.3005 46.3079 24.4306 46.5941 24.4468 46.9459H23.9172C23.9011 46.7335 23.8204 46.5596 23.6751 46.4242C23.532 46.2867 23.3544 46.218 23.1425 46.218C22.8582 46.218 22.6373 46.321 22.4799 46.5273C22.3247 46.7315 22.2469 47.0278 22.2469 47.4161V47.5222C22.2469 47.9003 22.3247 48.1915 22.4799 48.3957C22.6353 48.6 22.8572 48.7021 23.1456 48.7021ZM25.8357 45.023V45.8176H26.4469V46.2513H25.8357V48.2865C25.8357 48.418 25.863 48.517 25.9174 48.5837C25.9719 48.6485 26.0647 48.6809 26.1958 48.6809C26.2603 48.6809 26.3491 48.6688 26.462 48.6445V49.0994C26.3147 49.1399 26.1716 49.1602 26.0323 49.1602C25.7823 49.1602 25.5936 49.0842 25.4664 48.9326C25.3394 48.781 25.2759 48.5656 25.2759 48.2865V46.2513H24.6797V45.8176H25.2759V45.023H25.8357ZM32.1145 49.0994H31.5304L29.3125 45.6963V49.0994H28.7285V44.6831H29.3125L31.5365 48.1015V44.6831H32.1145V49.0994ZM35.0799 49.0994C35.0475 49.0347 35.0213 48.9195 35.0012 48.7536C34.7409 49.0246 34.4303 49.1602 34.0692 49.1602C33.7464 49.1602 33.4811 49.0692 33.2734 48.8871C33.0677 48.7031 32.9647 48.4706 32.9647 48.1895C32.9647 47.8478 33.0938 47.5829 33.3521 47.3949C33.6122 47.2047 33.9774 47.1096 34.4474 47.1096H34.9921V46.8519C34.9921 46.6557 34.9335 46.5 34.8165 46.3848C34.6996 46.2675 34.5271 46.2089 34.2991 46.2089C34.0994 46.2089 33.932 46.2593 33.7969 46.3605C33.6618 46.4615 33.5941 46.5839 33.5941 46.7275H33.0313C33.0313 46.5638 33.0888 46.406 33.2037 46.2543C33.3208 46.1007 33.4782 45.9793 33.6759 45.8903C33.8756 45.8014 34.0943 45.7569 34.3324 45.7569C34.7096 45.7569 35.0052 45.8519 35.219 46.0421C35.4328 46.2301 35.5437 46.49 35.5519 46.8215V48.332C35.5519 48.6334 35.5902 48.873 35.6669 49.0509V49.0994H35.0799ZM34.1509 48.6718C34.3264 48.6718 34.4928 48.6263 34.6502 48.5353C34.8075 48.4443 34.9214 48.326 34.9921 48.1804V47.5071H34.5533C33.8675 47.5071 33.5245 47.7082 33.5245 48.1106C33.5245 48.2865 33.5831 48.4241 33.7 48.5232C33.817 48.6222 33.9673 48.6718 34.1509 48.6718ZM37.1889 45.023V45.8176H37.8001V46.2513H37.1889V48.2865C37.1889 48.418 37.2162 48.517 37.2706 48.5837C37.3251 48.6485 37.4179 48.6809 37.549 48.6809C37.6135 48.6809 37.7023 48.6688 37.8153 48.6445V49.0994C37.6679 49.1399 37.5248 49.1602 37.3855 49.1602C37.1355 49.1602 36.9468 49.0842 36.8197 48.9326C36.6927 48.781 36.6291 48.5656 36.6291 48.2865V46.2513H36.0331V45.8176H36.6291V45.023H37.1889ZM39.065 49.0994H38.5051V45.8176H39.065V49.0994ZM38.4597 44.947C38.4597 44.8561 38.487 44.7792 38.5415 44.7165C38.5979 44.6538 38.6806 44.6226 38.7895 44.6226C38.8986 44.6226 38.9813 44.6538 39.0377 44.7165C39.0942 44.7792 39.1224 44.8561 39.1224 44.947C39.1224 45.038 39.0942 45.1138 39.0377 45.1746C38.9813 45.2351 38.8986 45.2656 38.7895 45.2656C38.6806 45.2656 38.5979 45.2351 38.5415 45.1746C38.487 45.1138 38.4597 45.038 38.4597 44.947ZM41.0439 48.3382L41.8548 45.8176H42.4268L41.2527 49.0994H40.826L39.6399 45.8176H40.2118L41.0439 48.3382ZM44.2816 49.1602C43.8378 49.1602 43.4768 49.0146 43.1983 48.7233C42.9199 48.4301 42.7808 48.0388 42.7808 47.5495V47.4464C42.7808 47.1209 42.8423 46.8307 42.9653 46.5759C43.0904 46.319 43.2638 46.1188 43.4858 45.9753C43.7098 45.8297 43.9518 45.7569 44.212 45.7569C44.6376 45.7569 44.9685 45.8974 45.2046 46.1785C45.4405 46.4595 45.5586 46.8619 45.5586 47.3856V47.6192H43.3405C43.3487 47.9429 43.4424 48.2047 43.622 48.4049C43.8035 48.603 44.0336 48.7021 44.3118 48.7021C44.5096 48.7021 44.6771 48.6617 44.8142 48.5808C44.9513 48.4999 45.0714 48.3928 45.1744 48.2593L45.5163 48.5262C45.2418 48.9488 44.8303 49.1602 44.2816 49.1602ZM44.212 46.218C43.9862 46.218 43.7964 46.3009 43.6432 46.4666C43.4898 46.6305 43.395 46.861 43.3588 47.1582H44.9987V47.1158C44.9826 46.8307 44.9059 46.6102 44.7688 46.4545C44.6317 46.2969 44.446 46.218 44.212 46.218Z" fill="#61DAFB"/>
</g>
<defs>
<clipPath id="clip0_110_2687">
<rect width="51" height="41" fill="white" transform="translate(3 8)"/>
</clipPath>
</defs>
</svg>
