<svg width="57" height="56" viewBox="0 0 57 56" fill="none" xmlns="http://www.w3.org/2000/svg">
<g clip-path="url(#clip0_111_2723)">
<path d="M35.4749 21.8339L30.8366 23.3484L26.8013 25.1294L25.6724 25.4274C25.3849 25.7009 25.0834 25.9779 24.7574 26.2584C24.3998 26.5669 24.0667 26.8474 23.8108 27.0507C23.5268 27.2751 23.1061 27.6958 22.8922 27.9622C22.5732 28.3618 22.3208 28.786 22.2121 29.1121C22.0192 29.7011 22.114 30.2971 22.4856 30.8476C22.9624 31.5487 23.9125 32.2639 25.0203 32.7512C25.5848 33.0002 26.5349 33.3192 27.25 33.498C28.4385 33.7995 30.7384 34.1256 32.004 34.1747C32.2599 34.1852 32.6035 34.1852 32.6175 34.1747C32.6456 34.1571 32.8419 33.782 33.0698 33.3157C33.8481 31.7275 34.4091 30.2375 34.7141 28.9649C34.8963 28.1937 35.0401 27.1664 35.1347 25.9499C35.1593 25.6098 35.1698 24.4704 35.1487 24.0847C35.1172 23.4537 35.0611 22.9419 34.9735 22.4405C34.9594 22.3669 34.9559 22.3002 34.9629 22.2967C34.9769 22.2862 35.019 22.2722 35.5905 22.1074L35.4748 21.834V21.8339H35.4749V21.8339ZM34.4161 22.4545C34.4582 22.4545 34.5703 23.5307 34.5984 24.2109C34.6054 24.3547 34.6019 24.4493 34.5949 24.4493C34.5669 24.4493 34.0024 24.1163 33.5993 23.8639C33.2486 23.643 32.5826 23.2012 32.4774 23.1171C32.4423 23.0926 32.4457 23.0891 32.7333 22.9909C33.2205 22.8261 34.3776 22.4545 34.4161 22.4545ZM32.0531 23.2328C32.0847 23.2328 32.1653 23.2783 32.3581 23.3975C33.0803 23.8498 34.062 24.3967 34.4827 24.5791C34.6124 24.6351 34.6264 24.6141 34.3284 24.8175C33.6904 25.2522 32.8945 25.6799 31.9198 26.1111C31.7481 26.1882 31.6044 26.2478 31.6009 26.2478C31.5939 26.2478 31.6148 26.1602 31.6429 26.055C31.8778 25.182 32.011 24.2985 32.0181 23.5903C32.0216 23.2397 32.0216 23.2397 32.0531 23.2293C32.0461 23.2328 32.0496 23.2328 32.0531 23.2328ZM31.5658 23.4186C31.5868 23.4396 31.5728 24.2249 31.5447 24.4388C31.4816 24.9506 31.3835 25.4274 31.2223 25.9639C31.1837 26.0935 31.1486 26.2023 31.1416 26.2092C31.1275 26.2268 30.6472 25.757 30.4895 25.5747C30.216 25.2591 30.0022 24.9436 29.8444 24.6351C29.7638 24.4773 29.6376 24.1688 29.6481 24.1583C29.7042 24.1197 31.5518 23.4046 31.5658 23.4186ZM29.2729 24.3196C29.2764 24.3196 29.2799 24.3196 29.2835 24.3231C29.2905 24.3301 29.3151 24.3862 29.3361 24.4493C29.4482 24.7543 29.7006 25.203 29.918 25.4905C30.1564 25.8061 30.4685 26.1426 30.7279 26.3635C30.812 26.4336 30.8891 26.5002 30.8996 26.5107C30.9207 26.5318 30.9277 26.5283 30.3562 26.7456C29.6937 26.9981 28.9714 27.2505 28.144 27.5169C27.9464 27.5806 27.7489 27.6449 27.5516 27.7097C27.52 27.7203 27.5305 27.7027 27.6217 27.559C28.0319 26.9174 28.6559 25.6588 29.0065 24.7683C29.0661 24.6141 29.1257 24.4598 29.1362 24.4248C29.1503 24.3756 29.1678 24.3581 29.2133 24.3336C29.2379 24.3266 29.2624 24.3196 29.2729 24.3196ZM28.5718 24.6106C28.5823 24.6176 28.4035 24.9927 28.2282 25.3363C27.8881 25.9989 27.5165 26.651 27.0187 27.4433C26.9345 27.58 26.8539 27.7063 26.8434 27.7203C26.8259 27.7449 26.8188 27.7378 26.7628 27.6292C26.6436 27.3942 26.5454 27.0927 26.4928 26.8157C26.4402 26.5423 26.4507 26.0655 26.5103 25.771C26.5559 25.5537 26.5524 25.5572 26.6576 25.5046C27.1063 25.2767 28.5578 24.5965 28.5718 24.6106ZM34.6194 24.856V25.0032C34.6194 25.7851 34.5353 26.8578 34.4126 27.6397C34.3915 27.7764 34.3739 27.8886 34.3705 27.8921C34.3705 27.8921 34.2688 27.8641 34.1496 27.829C33.6238 27.6642 33.0523 27.4223 32.5369 27.1384C32.1968 26.9525 31.7025 26.6475 31.7166 26.6334C31.72 26.63 31.8673 26.5528 32.039 26.4617C32.7263 26.1041 33.3853 25.7184 33.9568 25.3363C34.1707 25.1926 34.4931 24.9612 34.5633 24.8981L34.6194 24.856ZM25.9248 25.8937C25.9388 25.8937 25.9353 25.9217 25.9143 26.0479C25.9003 26.1391 25.8828 26.3074 25.8758 26.4231C25.8477 26.9349 25.9319 27.3136 26.1843 27.8324C26.2544 27.9762 26.3105 28.0954 26.307 28.0989C26.2824 28.1199 23.9616 28.8001 23.2323 28.9999C23.015 29.0595 22.8257 29.1121 22.8116 29.1156C22.7871 29.1226 22.7836 29.1191 22.7941 29.0595C22.8747 28.5441 23.2674 27.871 23.8143 27.303C24.1789 26.9244 24.4699 26.7035 24.9677 26.4195C25.3253 26.2162 25.8757 25.9113 25.9178 25.8972C25.9178 25.8937 25.9213 25.8937 25.9248 25.8937ZM31.394 26.8718C31.3975 26.8683 31.4816 26.9139 31.5833 26.9735C32.3336 27.4083 33.3783 27.8115 34.2688 28.0183L34.3495 28.0358L34.2372 28.0989C33.771 28.3583 32.2389 28.9964 30.6718 29.5819C30.4439 29.666 30.2195 29.7502 30.1774 29.7677C30.1353 29.7852 30.0968 29.7957 30.0968 29.7922C30.0968 29.7887 30.1599 29.666 30.2405 29.5153C30.6787 28.6949 31.1205 27.6957 31.3449 27.0016C31.373 26.9349 31.3905 26.8754 31.394 26.8718ZM30.8366 27.0542C30.8401 27.0577 30.8121 27.1313 30.777 27.2154C30.472 27.9552 30.0723 28.7616 29.5604 29.6661C29.4307 29.8975 29.322 30.0833 29.3185 30.0833C29.315 30.0833 29.2098 30.0202 29.0836 29.943C28.3403 29.4873 27.6813 28.9263 27.2501 28.3829L27.1869 28.3058L27.5059 28.2181C28.6489 27.9061 29.62 27.5696 30.5841 27.1559C30.7209 27.0998 30.8331 27.0542 30.8366 27.0542ZM34.3004 28.2637C34.3039 28.3443 34.1251 29.0666 33.9778 29.5889C33.8551 30.0271 33.7499 30.3707 33.5571 30.9772C33.473 31.2437 33.3994 31.4645 33.3959 31.4645C33.3924 31.4645 33.3713 31.461 33.3503 31.4541C32.3091 31.2647 31.3765 31.0018 30.5 30.6512C30.2546 30.553 29.904 30.3952 29.883 30.3777C29.876 30.3706 30.0864 30.2725 30.3528 30.1568C31.948 29.4592 33.6027 28.6668 34.1707 28.3268C34.2373 28.2847 34.2899 28.2637 34.3004 28.2637ZM26.3035 28.5372C26.3105 28.5442 25.8652 29.1858 25.2412 30.0587C25.0238 30.3637 24.7714 30.7213 24.6768 30.8545C24.5821 30.9878 24.4384 31.1981 24.3577 31.3243L24.2104 31.5522L24.0526 31.419C23.8668 31.2647 23.5443 30.9352 23.4006 30.7529C23.0991 30.3778 22.8958 29.9816 22.8151 29.6205C22.7765 29.4522 22.7765 29.368 22.8116 29.3576C22.8641 29.3436 23.8002 29.1227 24.6767 28.9193C25.1641 28.8071 25.7285 28.6739 25.9318 28.6248C26.1352 28.5757 26.3 28.5372 26.3035 28.5372ZM26.7522 28.709L26.8644 28.8352C27.3693 29.3996 27.8846 29.8169 28.5087 30.1814C28.6209 30.2446 28.705 30.3006 28.698 30.3042C28.6735 30.3217 26.5313 31.0824 25.5392 31.426C24.9818 31.6223 24.5225 31.7801 24.519 31.7801C24.5155 31.7801 24.4839 31.7591 24.4488 31.7345L24.3858 31.6889L24.4874 31.5417C24.817 31.0649 25.2307 30.5425 26.1317 29.4557L26.7522 28.709ZM29.55 30.7108C29.5534 30.7073 29.7077 30.7634 29.897 30.8336C30.3528 31.0053 30.7138 31.114 31.1977 31.2367C31.7937 31.3875 32.6561 31.5347 33.1645 31.5768C33.2416 31.5838 33.2837 31.5908 33.2697 31.6013C33.2451 31.6154 32.7298 31.7871 32.3511 31.9063C31.7481 32.0956 29.9075 32.639 28.407 33.0703C28.13 33.1509 27.8916 33.2175 27.8776 33.221C27.8426 33.2281 27.7269 33.1965 27.7269 33.1824C27.7269 33.1755 27.811 33.0668 27.9127 32.9476C28.4175 32.3446 28.9189 31.6714 29.3361 31.0334C29.4517 30.858 29.55 30.7143 29.55 30.7108ZM28.9329 30.7284C28.9364 30.7319 28.6875 31.1315 28.2528 31.8186C28.0669 32.1096 27.8601 32.4392 27.7864 32.5549C27.7163 32.6671 27.6111 32.8424 27.5516 32.9405L27.4499 33.1194L27.3973 33.1053C27.2711 33.0703 26.3841 32.7582 26.1492 32.6636C25.8582 32.5479 25.5567 32.4077 25.3323 32.2885C25.0519 32.1377 24.7013 31.9133 24.7293 31.9063C24.7363 31.9028 25.2166 31.7731 25.7951 31.6153C27.3307 31.1981 28.1826 30.9562 28.7401 30.7809C28.8417 30.7494 28.9294 30.7248 28.9329 30.7284ZM33.2977 31.752H33.3012C33.3152 31.7871 32.7473 33.3648 32.5404 33.8626C32.4949 33.9747 32.4774 34.0028 32.4528 33.9993C32.3932 33.9958 31.5693 33.8801 31.0679 33.8065C30.195 33.6733 28.7295 33.4173 28.3614 33.3332L28.2773 33.3157L28.7996 33.1964C29.9215 32.944 30.4614 32.8073 31.0083 32.639C31.699 32.4287 32.3827 32.1657 33.0733 31.8432C33.182 31.7941 33.2732 31.7555 33.2977 31.752Z" fill="url(#paint0_linear_111_2723)"/>
<path d="M30.6929 11.0217C30.6157 11.0113 29.3711 11.46 28.5683 11.786C27.4849 12.2278 26.6436 12.6485 26.1247 13.0131C25.9319 13.1499 25.6899 13.3917 25.6514 13.4864C25.6374 13.5214 25.6304 13.5635 25.6304 13.6056L26.1002 14.0508L27.2185 14.4084L29.8795 14.8852L32.9226 15.4076L32.9542 15.1447C32.9437 15.1447 32.9366 15.1412 32.9262 15.1412L32.5264 15.0781L32.4458 14.9343C32.0321 14.2051 31.5764 13.3006 31.3099 12.6905C31.1031 12.2172 30.9068 11.6704 30.7981 11.2777C30.7384 11.0393 30.7315 11.0253 30.693 11.0218V11.0217H30.6929V11.0217ZM30.6367 11.2006H30.6403C30.6438 11.204 30.6578 11.3023 30.6718 11.4179C30.7314 11.9088 30.8402 12.382 31.0119 12.8939C31.1416 13.2796 31.1416 13.2585 30.9909 13.2129C30.6333 13.1148 29.0311 12.8378 27.8707 12.6766C27.6848 12.652 27.5271 12.6275 27.5271 12.624C27.513 12.61 28.3649 12.1647 28.7401 11.9894C29.2204 11.7685 30.5386 11.2181 30.6367 11.2006ZM27.2571 12.7712L27.3938 12.8167C28.137 13.0692 30.0056 13.4268 31.0364 13.5109C31.1521 13.5215 31.2503 13.532 31.2537 13.532C31.2572 13.5355 31.1591 13.5881 31.0329 13.6477C30.5351 13.8966 29.9882 14.2016 29.6095 14.4365C29.4974 14.5066 29.3956 14.5627 29.3817 14.5627C29.3676 14.5627 29.294 14.5487 29.2169 14.5382L29.0767 14.5171L28.7261 14.1735C28.1091 13.574 27.6252 13.1113 27.4394 12.9359L27.2571 12.7712ZM27.1169 12.8799L27.6112 13.4969C27.8811 13.837 28.1546 14.17 28.2142 14.2436C28.2738 14.3173 28.3229 14.3769 28.3194 14.3804C28.3054 14.3909 27.6042 14.2542 27.2326 14.1701C26.8504 14.0824 26.6927 14.0403 26.4578 13.9667L26.2649 13.9036V13.8545C26.2684 13.6196 26.5665 13.269 27.0713 12.9114L27.1169 12.8799ZM31.3169 13.7213C31.331 13.7213 31.3484 13.7528 31.3905 13.8475C31.5097 14.1104 31.8814 14.8186 31.9725 14.9553C32.0006 15.001 32.0496 15.0045 31.5553 14.9238C30.3668 14.7309 29.9847 14.6679 29.9847 14.6609C29.9847 14.6574 30.0197 14.6328 30.0653 14.6083C30.4334 14.405 30.805 14.1455 31.1346 13.8685C31.2153 13.8019 31.2889 13.7388 31.3029 13.7283C31.3064 13.7213 31.3134 13.7178 31.3169 13.7213Z" fill="url(#paint1_linear_111_2723)"/>
<path d="M25.6759 13.4373C25.6759 13.4373 25.5988 13.56 25.6724 13.7424C25.718 13.8545 25.8512 13.9912 26.0019 14.1315C26.0019 14.1315 27.562 15.653 27.7514 15.8704C28.6138 16.8661 28.9889 17.8477 29.024 19.201C29.045 20.0705 28.8802 20.8347 28.4701 21.7217C27.7408 23.3134 26.2017 25.0699 23.8282 27.0192L24.1754 26.9035C24.3997 26.7351 24.7048 26.5564 25.4199 26.1637C27.0712 25.2591 28.9293 24.4283 31.2082 23.5728C34.4896 22.3387 39.8852 20.8943 42.9563 20.4246L43.2754 20.3754L43.2263 20.2983C42.9459 19.8636 42.753 19.5936 42.5216 19.3062C41.8485 18.4717 41.0317 17.7951 40.0324 17.2342C38.6581 16.4664 36.8806 15.8669 34.6299 15.4217C34.2057 15.3375 33.2731 15.1762 32.5158 15.0606C30.9101 14.8117 29.8724 14.6399 28.7295 14.4435C28.3193 14.3734 27.7057 14.2682 27.2991 14.1806C27.0887 14.135 26.6856 14.0404 26.37 13.9317C26.1176 13.8335 25.753 13.7353 25.6759 13.4373ZM26.5804 14.3138C26.5839 14.3103 26.64 14.3313 26.7136 14.3559C26.8469 14.4014 27.0186 14.454 27.222 14.5101C27.3759 14.5525 27.5302 14.5934 27.6848 14.6328C27.8951 14.6854 28.0704 14.7345 28.0739 14.7345C28.0985 14.759 28.4526 15.8914 28.5718 16.3261C28.6173 16.4909 28.6524 16.6311 28.6489 16.6311C28.6453 16.6347 28.6068 16.575 28.5613 16.4944C28.151 15.7722 27.5025 15.0395 26.7522 14.4505C26.6541 14.3804 26.5804 14.3173 26.5804 14.3138ZM28.3053 14.7906C28.3229 14.7906 28.4 14.8011 28.4946 14.8221C29.0906 14.9554 30.1599 15.1587 30.8435 15.2744C30.9592 15.2919 31.0504 15.313 31.0504 15.32C31.0504 15.327 31.0083 15.3515 30.9557 15.3796C30.8401 15.4392 30.3737 15.7161 30.2195 15.8213C29.8303 16.0807 29.4798 16.3612 29.2273 16.6136C29.1257 16.7153 29.038 16.7994 29.038 16.7994C29.038 16.7994 29.017 16.7399 28.9994 16.6662C28.8733 16.1789 28.6103 15.4566 28.3719 14.9483C28.3333 14.8677 28.3018 14.7941 28.3018 14.7871C28.3018 14.7941 28.3018 14.7906 28.3053 14.7906ZM31.3414 15.3691C31.3624 15.3761 31.3975 15.4953 31.4676 15.7582C31.5973 16.2666 31.6569 16.8345 31.6359 17.3639C31.6288 17.5112 31.6219 17.6479 31.6148 17.6654L31.6043 17.7005L31.422 17.6409C31.0469 17.5217 30.4369 17.3428 29.9145 17.1956C29.6165 17.115 29.3746 17.0414 29.3746 17.0344C29.3746 17.0133 29.8094 16.5786 29.9952 16.4138C30.3492 16.1018 31.3098 15.3585 31.3414 15.3691ZM31.5833 15.4041C31.5938 15.3936 33.0347 15.6425 33.6903 15.7687C34.1777 15.8634 34.8859 16.0106 34.9279 16.0282C34.9489 16.0352 34.8753 16.0772 34.6404 16.1824C33.7149 16.5996 33.0277 16.9747 32.3441 17.4305C32.1653 17.5497 32.0145 17.6479 32.011 17.6479C32.0075 17.6479 32.004 17.5462 32.004 17.4235C32.004 16.7574 31.8708 16.0843 31.6253 15.5163C31.6008 15.4602 31.5798 15.4076 31.5833 15.4041ZM35.31 16.1404C35.3206 16.1509 35.275 16.4349 35.2329 16.6031C35.1067 17.1255 34.7666 17.9004 34.3495 18.6295C34.2758 18.7593 34.2092 18.8644 34.2021 18.8679C34.1952 18.8714 34.1005 18.8188 33.9918 18.7557C33.5852 18.5173 33.1224 18.293 32.6175 18.0826C32.4773 18.023 32.3546 17.9739 32.3511 17.9669C32.3265 17.9459 33.4554 17.1991 34.0514 16.8415C34.5247 16.5541 35.296 16.1263 35.31 16.1404ZM35.5765 16.1824C35.608 16.1824 36.2461 16.3577 36.5791 16.4559C37.403 16.7013 38.3496 17.0484 38.9666 17.3288L39.2225 17.4446L39.0438 17.4866C37.5363 17.8337 36.2461 18.2334 35.0015 18.7382C34.8998 18.7803 34.8087 18.8154 34.8017 18.8154C34.7947 18.8154 34.8297 18.7347 34.8753 18.6365C35.2505 17.8407 35.4924 17.0098 35.5519 16.3016C35.5555 16.235 35.5659 16.1824 35.5765 16.1824ZM29.2239 17.6409C29.2343 17.6303 29.7217 17.7461 29.9846 17.8196C30.3843 17.9319 31.2327 18.2158 31.2327 18.2369C31.2327 18.2403 31.1381 18.321 31.0259 18.4192C30.5666 18.8013 30.1249 19.2044 29.5954 19.7163C29.4377 19.8671 29.3045 19.9898 29.2975 19.9898C29.2904 19.9898 29.287 19.9687 29.2904 19.9407C29.3711 19.3517 29.3536 18.5945 29.2414 17.8267C29.2308 17.7285 29.2203 17.6444 29.2239 17.6409ZM39.4645 17.6514C39.4715 17.6584 39.2401 18.023 39.0929 18.2298C38.8826 18.5313 38.574 18.9311 37.8763 19.8075C37.5082 20.2703 37.0945 20.7927 36.9578 20.968C36.8175 21.1432 36.7019 21.2905 36.6983 21.2905C36.6948 21.2905 36.6493 21.2274 36.6002 21.1503C36.2075 20.5613 35.7377 20.0459 35.1803 19.5831C35.0751 19.4955 34.9595 19.4008 34.9209 19.3727C34.8823 19.3447 34.8507 19.3167 34.8507 19.3132C34.8507 19.3027 35.4467 19.0467 35.899 18.8644C36.6914 18.5419 37.7711 18.1562 38.581 17.9073C39.0052 17.7741 39.4575 17.6444 39.4645 17.6514ZM39.7345 17.7215C39.7484 17.718 39.8326 17.7601 39.9343 17.8196C40.7862 18.3069 41.6206 18.9345 42.2797 19.5796C42.4655 19.7619 42.9248 20.2387 42.9178 20.2422C42.9178 20.2422 42.7565 20.2563 42.5672 20.2703C41.0912 20.3825 39.2016 20.6945 37.3855 21.1327C37.2628 21.1607 37.1542 21.1853 37.1471 21.1853C37.1402 21.1853 37.2769 21.0485 37.4487 20.8838C38.5144 19.8566 39.0018 19.208 39.5767 18.051C39.6573 17.8793 39.7275 17.732 39.7345 17.7215C39.731 17.7215 39.731 17.7215 39.7345 17.7215ZM31.9269 18.5209C31.976 18.5313 32.4317 18.7453 32.7753 18.917C33.0908 19.0747 33.5641 19.3272 33.5887 19.3482C33.5922 19.3517 33.4238 19.4394 33.2171 19.541C32.5579 19.8706 31.9935 20.1826 31.4045 20.5402C31.2362 20.6419 31.096 20.7261 31.0925 20.7261C31.0785 20.7261 31.082 20.712 31.1766 20.5402C31.4922 19.9653 31.7446 19.2781 31.8883 18.6085C31.9023 18.5559 31.9164 18.5209 31.9269 18.5209ZM31.4711 18.605C31.4816 18.6155 31.3624 19.0467 31.2888 19.2816C31.145 19.7269 30.9031 20.2843 30.6683 20.705C30.6121 20.8031 30.528 20.9469 30.4824 21.0275L30.3948 21.1677L30.1985 20.9785C29.9706 20.7576 29.7848 20.6209 29.5464 20.4981C29.4517 20.4491 29.3781 20.407 29.3781 20.4C29.3781 20.3719 29.9776 19.8285 30.4369 19.4359C30.7664 19.1519 31.4606 18.5945 31.4711 18.605ZM34.2583 19.7514L34.4301 19.8636C34.8227 20.1195 35.2855 20.4596 35.6396 20.7576C35.8394 20.9223 36.225 21.2695 36.3022 21.3536L36.3442 21.3992L36.0603 21.4798C34.4546 21.925 33.2135 22.3212 31.7656 22.8541C31.6043 22.9137 31.4676 22.9628 31.457 22.9628C31.4361 22.9628 31.4185 22.9803 31.7796 22.6472C32.7052 21.7954 33.5255 20.8557 34.1356 19.9407L34.2583 19.7514ZM33.5256 19.9337C33.5326 19.9407 33.0523 20.6173 32.7648 20.9995C32.4212 21.4553 31.8111 22.2195 31.3905 22.7173C31.2152 22.9242 31.0645 23.096 31.0574 23.0995C31.0469 23.103 31.0434 23.0504 31.0434 22.9698C31.0434 22.5455 30.9347 22.0933 30.7454 21.7077C30.6647 21.5464 30.6507 21.5078 30.6683 21.4903C30.7349 21.4307 31.7551 20.8487 32.4002 20.5017C32.8349 20.2703 33.515 19.9267 33.5256 19.9337ZM29.0941 21.0205C29.1046 21.0205 29.1853 21.0626 29.2764 21.1117C29.5008 21.2344 29.7006 21.3711 29.8794 21.5184C29.8864 21.5254 29.7953 21.599 29.6761 21.6866C29.343 21.925 28.8382 22.3072 28.5438 22.5421C28.2352 22.7875 28.2247 22.7945 28.2597 22.7419C28.4911 22.3878 28.6068 22.188 28.7295 21.9321C28.8382 21.7042 28.9469 21.4343 29.024 21.1994C29.052 21.0977 29.0871 21.0205 29.0941 21.0205ZM30.2756 21.9461C30.2931 21.9426 30.3142 21.9741 30.4088 22.1144C30.6086 22.4123 30.7629 22.8121 30.8015 23.1346L30.8085 23.2047L30.3282 23.3906C29.4692 23.7236 28.677 24.0532 28.1405 24.2985C27.9898 24.3687 27.7268 24.4949 27.5551 24.5791C27.3833 24.6666 27.243 24.7333 27.243 24.7298C27.243 24.7263 27.3517 24.6456 27.4849 24.5474C28.5332 23.7867 29.4412 22.9523 30.1213 22.1179C30.195 22.0302 30.2616 21.9496 30.2686 21.9461L30.2756 21.9461ZM29.7322 22.0793C29.7463 22.0933 29.3466 22.5456 29.0731 22.8225C28.3965 23.5132 27.7269 24.0532 26.8959 24.5791C26.7908 24.6456 26.6961 24.7052 26.6856 24.7123C26.661 24.7263 26.6926 24.6912 27.0572 24.295C27.2886 24.0461 27.4639 23.8358 27.6637 23.5764C27.7969 23.4046 27.8215 23.38 28.0144 23.2433C28.5297 22.8716 29.7182 22.0653 29.7322 22.0793Z" fill="url(#paint2_radial_111_2723)"/>
<path d="M14.5506 36.5961C14.486 36.5961 14.4213 36.6022 14.3572 36.6022C13.0509 36.6719 12.1699 37.2467 11.6547 38.3694C11.2142 39.3847 11.2623 40.7119 11.6597 41.7335C12.1218 42.7317 12.8686 43.2585 14.115 43.4574C14.3787 43.5006 14.5556 43.6454 15.0664 44.2418L15.6949 44.9781H16.8347L16.0768 44.214C15.6578 43.7951 15.3189 43.4303 15.3189 43.3982C15.3189 43.3662 15.4792 43.296 15.6732 43.2369C16.3128 43.0433 16.8439 42.5492 17.2154 41.792C17.5161 41.1839 17.5593 40.9959 17.6024 40.2393C17.7152 37.9873 16.5278 36.5793 14.5506 36.5954L14.5506 36.5961ZM15.55 42.4852C14.9955 42.7538 14.1903 42.8074 13.6646 42.6146C13.1212 42.415 12.595 41.8506 12.3584 41.2116C12.0953 40.5129 12.1328 39.224 12.4335 38.6435C12.9172 37.7193 13.5568 37.2942 14.4915 37.2942C15.8778 37.2942 16.6665 38.1433 16.7694 39.7391C16.8507 41.0712 16.4046 42.0706 15.5506 42.4847L15.55 42.4852ZM35.2409 38.5197C34.7627 38.5197 34.3968 38.7132 34.1502 39.0945L33.9568 39.3965V38.6115H33.1293V43.3189H33.9562V41.8142C33.9562 40.4384 33.9734 40.2775 34.1657 39.901C34.4306 39.3847 34.8865 39.1272 35.3272 39.2505L35.6229 39.3367V38.5209H35.2409V38.5197ZM30.3795 38.4765C30.2174 38.4765 30.0455 38.4981 29.8743 38.5357C28.767 38.8253 28.1428 39.885 28.181 40.9756C28.181 41.8888 28.3584 42.3453 28.7991 42.8241C29.7017 43.5647 30.5181 43.6238 31.6198 43.2265C31.8077 43.1464 32.0123 43.0539 32.0123 43.0539V42.3134L31.6198 42.5167C30.7282 42.9048 30.0566 42.9048 29.5187 42.4476C29.1755 42.0983 29.0245 41.6793 28.9549 41.2012H32.2914V40.5665C32.2914 39.2726 31.5126 38.4556 30.3788 38.4765H30.3795ZM29.0301 40.5406C29.0301 40.5406 29.1533 39.7335 29.6105 39.4168C29.8305 39.2615 30.0831 39.1864 30.3302 39.1864C30.5779 39.1864 30.8249 39.2664 31.0289 39.4224C31.4479 39.7446 31.5181 40.5345 31.5181 40.5345H29.0301V40.5406H29.0301ZM9.08107 39.6916C8.18399 39.1482 7.78595 38.7563 7.83462 38.2942C7.97385 37.0157 9.55369 37.1925 10.4286 37.6762L10.4348 36.8161C10.4348 36.8161 9.9511 36.6066 9.25791 36.5955C8.19445 36.5795 7.50682 36.9282 7.18462 37.638C6.71138 38.6854 7.13041 39.4753 8.64493 40.3564C9.49519 40.8512 9.87101 41.2807 9.87101 41.7489C9.87101 42.7163 8.70466 43.0539 7.50134 42.447C7.25369 42.3238 7.04418 42.2209 7.0331 42.2209C6.98994 42.4951 7.01218 43.1513 7.01218 43.1513C7.01218 43.1513 7.38189 43.3066 7.93637 43.4137C9.31156 43.6879 10.563 43.0428 10.6813 41.9953C10.7842 41.012 10.4286 40.4962 9.08113 39.6909L9.08107 39.6916ZM42.5644 38.4655C42.4029 38.4655 42.2316 38.4876 42.053 38.5252C40.947 38.8148 40.324 39.8746 40.3665 40.9652C40.3665 41.8771 40.5434 42.3294 40.9839 42.8075C41.8866 43.5487 42.703 43.6084 43.8102 43.2105C43.9975 43.1304 44.2015 43.0393 44.2015 43.0393V42.2974L43.8096 42.5019C42.9162 42.8889 42.2446 42.8889 41.7086 42.4317C41.3635 42.083 41.2138 41.6689 41.1442 41.1852H44.4751V40.5506C44.4751 39.2629 43.6962 38.4452 42.5625 38.4668L42.5644 38.4655ZM41.215 40.5296C41.215 40.5296 41.3395 39.7236 41.796 39.4007C42.0154 39.2449 42.268 39.1697 42.5151 39.1697C42.7615 39.1697 43.0098 39.2498 43.2138 39.4063C43.6328 39.7285 43.7031 40.524 43.7031 40.524H41.2157L41.215 40.5296ZM26.0479 39.7021C25.1508 39.1599 24.754 38.7667 24.8021 38.3046C24.9413 37.0255 26.5212 37.203 27.3961 37.6867L27.4023 36.8265C27.4023 36.8265 26.9186 36.617 26.2254 36.6071C25.1619 36.5911 24.4743 36.9399 24.1515 37.6497C23.6789 38.6971 24.1034 39.487 25.613 40.3681C26.462 40.8623 26.8379 41.2862 26.8379 41.7544C26.8379 42.7218 25.6721 43.065 24.4688 42.4525C24.2223 42.3293 24.0129 42.2276 24.0005 42.2276C23.9574 42.5018 23.9796 43.158 23.9796 43.158C23.9796 43.158 24.3449 43.3078 24.8976 43.4205C26.2741 43.6953 27.5261 43.0508 27.6438 42.0033C27.7461 41.0249 27.3912 40.5092 26.048 39.7032V39.7021H26.0479ZM47.4264 38.5086C46.9483 38.5086 46.578 38.7026 46.3358 39.0841L46.1423 39.3848V38.601H45.3148V43.3072H46.1417V41.8026C46.1417 40.4273 46.1583 40.2659 46.3513 39.89C46.6162 39.3743 47.0721 39.1162 47.5126 39.24L47.8084 39.3262V38.5086L47.4264 38.5086ZM19.4675 39.675V36.6767H18.6333V43.3176H22.1416V42.5333H19.4675V39.675H19.4675ZM38.7603 40.6096L38.0727 42.3989L37.4115 40.5998L36.7399 38.606H35.886C36.4393 40.1747 37.0412 41.7705 37.6481 43.3176C37.9112 43.3238 38.1749 43.3176 38.438 43.3176L39.3666 40.9861L40.3123 38.6066H39.496C39.496 38.6066 39.1355 39.5517 38.7597 40.6103L38.7603 40.6096ZM21.3899 34.8671C21.5242 34.8671 21.6363 34.8241 21.7287 34.7316C21.8199 34.6404 21.868 34.5332 21.868 34.3989C21.868 34.2645 21.8199 34.1524 21.7287 34.0661C21.6363 33.9799 21.5297 33.9367 21.396 33.9367C21.2605 33.9367 21.1483 33.9799 21.0571 34.0711C20.9647 34.1623 20.9228 34.2744 20.9228 34.4038C20.9228 34.5394 20.966 34.6515 21.0571 34.7366C21.1434 34.8228 21.2555 34.8659 21.3899 34.8659V34.8671ZM21.0941 34.1031C21.1742 34.0231 21.2716 33.986 21.396 33.986C21.5131 33.986 21.6105 34.0231 21.6918 34.1031C21.7719 34.1832 21.8151 34.2806 21.8151 34.3989C21.8151 34.5172 21.7719 34.6195 21.6918 34.6995C21.6105 34.7796 21.5131 34.8178 21.396 34.8178C21.2771 34.8178 21.1804 34.7809 21.1003 34.6995C21.0202 34.6195 20.9771 34.5172 20.9771 34.3989C20.9771 34.2806 21.014 34.1833 21.0941 34.1031ZM21.2931 34.442H21.3473C21.3856 34.442 21.4231 34.479 21.4552 34.5492L21.5199 34.6946H21.6215L21.5415 34.5331C21.5088 34.4685 21.4768 34.4309 21.4392 34.4204C21.4866 34.4093 21.5242 34.3933 21.5513 34.3612C21.5784 34.3335 21.5883 34.2959 21.5883 34.2534C21.5883 34.2041 21.5729 34.1672 21.5402 34.14C21.5033 34.1092 21.4441 34.0926 21.3677 34.0926H21.1965V34.6946H21.2827V34.442L21.2931 34.442ZM21.2931 34.1623H21.3683C21.4225 34.1623 21.4607 34.1734 21.4817 34.1894C21.502 34.2054 21.5076 34.2264 21.5076 34.2645C21.5076 34.3342 21.4644 34.3669 21.3843 34.3669H21.2919V34.1623H21.2931ZM7.51234 34.3884C7.51234 34.1789 7.5062 34.0231 7.50126 33.9312H7.5062C7.52774 34.0396 7.55425 34.1204 7.57581 34.174L8.37677 35.9633H8.51111L9.31207 34.158C9.33369 34.1087 9.35525 34.0347 9.38174 33.9318H9.38787C9.37188 34.1105 9.36634 34.2658 9.36634 34.3896V35.9688H9.64046V33.6213H9.29667L8.5604 35.2541C8.53327 35.3188 8.49568 35.4156 8.44763 35.5437H8.43649C8.4205 35.4802 8.38291 35.3835 8.32932 35.2652L7.60962 33.6157H7.24429V35.9632H7.50799V34.3896L7.51234 34.3884ZM10.2413 34.3928H10.4779V35.8548H10.2413V34.3928ZM10.3596 33.8567C10.4089 33.8567 10.4508 33.84 10.4828 33.8074C10.5155 33.7753 10.5371 33.7335 10.5371 33.6842C10.5371 33.6361 10.521 33.593 10.4834 33.561C10.4502 33.5283 10.4076 33.5116 10.359 33.5116C10.311 33.5116 10.2678 33.5283 10.2357 33.561C10.2032 33.593 10.1815 33.6361 10.1815 33.6842C10.1815 33.7378 10.1982 33.7753 10.2357 33.8074C10.2728 33.84 10.3109 33.8567 10.359 33.8567H10.3596ZM12.1649 35.8869V35.6293C12.0355 35.7261 11.8963 35.7742 11.7521 35.7742C11.5796 35.7742 11.4397 35.7151 11.3374 35.6017C11.2358 35.4896 11.1816 35.3336 11.1816 35.1396C11.1816 34.9362 11.2358 34.7747 11.3479 34.6515C11.4557 34.5332 11.5956 34.4741 11.7669 34.4741C11.9068 34.4741 12.041 34.5173 12.165 34.6035V34.3294C12.0522 34.2702 11.9234 34.2431 11.778 34.2431C11.5093 34.2431 11.2999 34.3294 11.1434 34.4958C10.9881 34.6621 10.908 34.8882 10.908 35.1612C10.908 35.4039 10.9776 35.6079 11.1225 35.7638C11.2734 35.924 11.4663 36.0053 11.7029 36.0053C11.8858 36.0003 12.0355 35.962 12.1649 35.8869ZM12.842 35.1075C12.842 34.9146 12.8852 34.7588 12.9653 34.6515C13.0405 34.5548 13.1316 34.5061 13.2394 34.5061C13.3306 34.5061 13.3953 34.5227 13.4427 34.5603V34.2806C13.4058 34.2646 13.3522 34.259 13.2826 34.259C13.1858 34.259 13.0996 34.2916 13.0238 34.3515C12.9437 34.4149 12.8796 34.5117 12.8421 34.6349H12.8359V34.2917H12.5679V35.9676H12.8365V35.1075H12.842ZM14.3843 36.0009C14.6369 36.0009 14.8402 35.9195 14.9912 35.7581C15.1415 35.5979 15.2166 35.3823 15.2166 35.1136C15.2166 34.8395 15.1477 34.6299 15.0072 34.474C14.868 34.3182 14.6744 34.2429 14.4218 34.2429C14.1691 34.2429 13.9658 34.3181 13.8149 34.4635C13.6535 34.6238 13.5684 34.8499 13.5684 35.1401C13.5684 35.3927 13.6375 35.6023 13.7829 35.7581C13.9332 35.9195 14.1322 36.0002 14.3843 36.0002V36.0009ZM14.0022 34.6355C14.1045 34.5277 14.2389 34.474 14.4052 34.474C14.5778 34.474 14.7071 34.5277 14.8033 34.6355C14.9 34.7482 14.9481 34.9091 14.9481 35.1241C14.9481 35.3286 14.9049 35.4895 14.8137 35.5973C14.7226 35.7101 14.5882 35.7698 14.4107 35.7698C14.2382 35.7698 14.1045 35.71 14.0022 35.5973C13.9006 35.4839 13.8519 35.3286 13.8519 35.1241C13.8415 34.9208 13.8951 34.7544 14.0022 34.6355ZM16.3929 35.8548C16.4952 35.7637 16.5495 35.6516 16.5495 35.511C16.5495 35.3878 16.5063 35.2855 16.4262 35.2048C16.3609 35.1401 16.2599 35.0816 16.1138 35.0224C15.9844 34.9682 15.9043 34.9201 15.8612 34.8825C15.8181 34.8394 15.7915 34.7859 15.7915 34.71C15.7915 34.6404 15.8187 34.5868 15.8717 34.5437C15.9259 34.5006 15.9949 34.4797 16.0874 34.4797C16.2321 34.4797 16.356 34.5178 16.4693 34.5986V34.3299C16.3609 34.2757 16.2432 34.2499 16.1089 34.2499C15.9364 34.2499 15.791 34.2973 15.6837 34.3891C15.5709 34.4803 15.5174 34.5986 15.5174 34.7378C15.5174 34.861 15.5543 34.9633 15.6245 35.0385C15.6837 35.1026 15.7848 35.1679 15.9252 35.2264C16.0596 35.2856 16.1507 35.3391 16.1994 35.3822C16.2474 35.4254 16.269 35.479 16.269 35.5425C16.269 35.6989 16.1618 35.7797 15.9523 35.7797C15.7909 35.7797 15.6461 35.7267 15.5167 35.6195V35.909C15.6337 35.9794 15.7742 36.0113 15.9295 36.0113C16.1285 36.0009 16.2844 35.9522 16.3916 35.8555L16.3929 35.8548ZM17.6721 34.243C17.4194 34.243 17.2161 34.3182 17.0651 34.4636C16.9049 34.6239 16.8187 34.85 16.8187 35.1402C16.8187 35.3928 16.8883 35.6023 17.0331 35.7582C17.1841 35.9196 17.3824 36.0003 17.6351 36.0003C17.8938 36.0003 18.0911 35.919 18.242 35.7575C18.3929 35.5973 18.4681 35.3817 18.4681 35.113C18.4681 34.8388 18.3979 34.6294 18.2586 34.4735C18.1133 34.3176 17.9197 34.2424 17.6733 34.2424L17.6721 34.243ZM18.1933 35.1241C18.1933 35.3286 18.1502 35.4895 18.059 35.5973C17.9678 35.7101 17.8334 35.7698 17.656 35.7698C17.4834 35.7698 17.3497 35.71 17.2474 35.5973C17.1458 35.4839 17.0971 35.3286 17.0971 35.1241C17.0971 34.9085 17.1508 34.7421 17.2586 34.6299C17.3602 34.5227 17.4946 34.4685 17.6615 34.4685C17.8279 34.4685 17.9616 34.5227 18.0583 34.6299C18.1446 34.7482 18.1927 34.9091 18.1927 35.1241H18.1933ZM18.9192 35.9627H19.1872V34.5117H19.5796V34.2861H19.1871V34.0274C19.1871 33.792 19.2783 33.6737 19.4669 33.6737C19.5303 33.6737 19.595 33.6897 19.6431 33.7169V33.4748C19.595 33.4532 19.5303 33.4483 19.4496 33.4483C19.3048 33.4483 19.1865 33.4914 19.0897 33.5826C18.977 33.6898 18.9173 33.829 18.9173 34.0176V34.2924H18.6337V34.5179H18.9173V35.9635L18.9192 35.9627ZM20.0202 35.5055C20.0202 35.8333 20.165 36.0003 20.4607 36.0003C20.568 36.0003 20.6487 35.983 20.7133 35.9448V35.7144C20.6641 35.7514 20.6055 35.7687 20.5409 35.7687C20.4497 35.7687 20.3856 35.747 20.348 35.6983C20.3098 35.6504 20.2882 35.569 20.2882 35.4568V34.5111H20.7133V34.2855H20.2882V33.7914C20.1958 33.8234 20.1053 33.8506 20.0196 33.8776V34.2855H19.73V34.511H20.0196V35.5049L20.0202 35.5055ZM48.8559 38.5948C48.7647 38.5086 48.6568 38.4655 48.5232 38.4655C48.3876 38.4655 48.2754 38.5086 48.1843 38.601C48.0931 38.6916 48.0499 38.8043 48.0499 38.9338C48.0499 39.0681 48.0931 39.1802 48.1836 39.2664C48.2748 39.3527 48.3869 39.3959 48.5225 39.3959C48.6562 39.3959 48.7689 39.3527 48.8614 39.2615C48.952 39.1691 49 39.0625 49 38.9288C48.9951 38.7933 48.9464 38.6811 48.8552 38.5949L48.8559 38.5948ZM48.8128 39.2295C48.7326 39.3096 48.6353 39.3465 48.517 39.3465C48.3999 39.3465 48.3026 39.3096 48.2213 39.2295C48.1412 39.1482 48.098 39.0465 48.098 38.9276C48.098 38.8105 48.135 38.7132 48.2163 38.6318C48.2964 38.5518 48.3932 38.5148 48.517 38.5148C48.6341 38.5148 48.7315 38.5518 48.8128 38.6318C48.8928 38.7132 48.936 38.8105 48.936 38.9276C48.936 39.0521 48.899 39.1482 48.8128 39.2295ZM48.5712 38.9553C48.6192 38.9442 48.6575 38.9226 48.684 38.8962C48.7111 38.8684 48.721 38.8308 48.721 38.7878C48.721 38.7397 48.7055 38.7015 48.6729 38.675C48.636 38.6442 48.5762 38.6275 48.5005 38.6275H48.3292V39.2289H48.4155V38.9762H48.469C48.506 38.9762 48.543 39.0132 48.5762 39.0834L48.6403 39.2282H48.7426L48.6625 39.0668C48.6348 38.9965 48.6027 38.9644 48.5701 38.954L48.5712 38.9553ZM48.512 38.9011H48.4196V38.6978H48.4954C48.5491 38.6978 48.5866 38.7076 48.6082 38.7243C48.6297 38.7403 48.6347 38.7613 48.6347 38.7995C48.6347 38.8691 48.5916 38.9012 48.5115 38.9012L48.512 38.9011ZM33.5218 34.2165H33.597V33.6145H33.796V33.5394H33.3228V33.6145H33.5219V34.2165H33.5218ZM33.9778 33.7643C33.9778 33.7057 33.9778 33.6576 33.9735 33.6306C33.9784 33.6626 33.9895 33.6842 33.9944 33.7002L34.2255 34.2165H34.2625L34.4941 33.6952C34.5003 33.6792 34.5053 33.6583 34.5157 33.6306C34.5107 33.6842 34.5107 33.7272 34.5107 33.76V34.2159H34.5909V33.5394H34.4941L34.2847 34.0064C34.2797 34.0231 34.263 34.0557 34.2526 34.0927H34.2464C34.2421 34.0711 34.231 34.0495 34.2156 34.0126L34.0061 33.5394H33.8977V34.2172H33.9735V33.7649L33.9778 33.7643Z" fill="#231F1F"/>
</g>
<defs>
<linearGradient id="paint0_linear_111_2723" x1="25.6043" y1="31.8915" x2="27.2815" y2="30.9004" gradientUnits="userSpaceOnUse">
<stop stop-color="#909CA9"/>
<stop offset="1" stop-color="#EDEDEE"/>
</linearGradient>
<linearGradient id="paint1_linear_111_2723" x1="25.6427" y1="13.2078" x2="26.9922" y2="13.2078" gradientUnits="userSpaceOnUse">
<stop stop-color="#939FAB"/>
<stop offset="1" stop-color="#DCDEE1"/>
</linearGradient>
<radialGradient id="paint2_radial_111_2723" cx="0" cy="0" r="1" gradientUnits="userSpaceOnUse" gradientTransform="translate(32.4523 19.3971) rotate(-171.457) scale(1.73991 3.48068)">
<stop stop-color="#EE352C"/>
<stop offset="1" stop-color="#A91D22"/>
</radialGradient>
<clipPath id="clip0_111_2723">
<rect width="42" height="42" fill="white" transform="translate(7 7)"/>
</clipPath>
</defs>
</svg>
