<svg width="57" height="56" viewBox="0 0 57 56" fill="none" xmlns="http://www.w3.org/2000/svg">
<path d="M27.952 11.2848L14.5358 19.0307C14.2556 19.1922 14.0283 19.5857 14.0283 19.9087V35.4014C14.0283 35.7244 14.2556 36.1178 14.5358 36.2793L27.952 44.0253C28.2321 44.1876 28.686 44.1876 28.9661 44.0253L42.3831 36.2793C42.6632 36.1178 42.8898 35.7244 42.8898 35.4014V19.9087C42.8898 19.5857 42.6632 19.1922 42.3831 19.0307L28.9661 11.2848C28.686 11.1225 28.2321 11.1225 27.952 11.2848Z" fill="#003566"/>
<mask id="mask0_113_145" style="mask-type:luminance" maskUnits="userSpaceOnUse" x="14" y="11" width="29" height="34">
<path d="M14 11H43V44.1149H14V11Z" fill="white"/>
</mask>
<g mask="url(#mask0_113_145)">
<mask id="mask1_113_145" style="mask-type:luminance" maskUnits="userSpaceOnUse" x="14" y="11" width="29" height="34">
<path d="M27.952 11.2848L14.5358 19.0307C14.2556 19.1922 14.0283 19.5857 14.0283 19.9087V35.4014C14.0283 35.7244 14.2556 36.1178 14.5358 36.2793L27.952 44.0253C28.2321 44.1876 28.686 44.1876 28.9661 44.0253L42.3831 36.2793C42.6632 36.1178 42.8898 35.7244 42.8898 35.4014V19.9087C42.8898 19.5857 42.6632 19.1922 42.3831 19.0307L28.9661 11.2848C28.686 11.1225 28.2321 11.1225 27.952 11.2848Z" fill="white"/>
</mask>
<g mask="url(#mask1_113_145)">
<path d="M1.19999 11.2932L55.7189 44.0169C55.996 44.1838 56.221 44.0559 56.221 43.7329V11.5771C56.221 11.2541 55.9585 10.9916 55.6355 10.9916H1.28342C0.959648 10.9916 0.697876 10.7298 0.697876 10.406C0.697876 10.7298 0.922142 11.1263 1.19999 11.2932Z" fill="#3A6EA5"/>
<path d="M55.7189 11.2932L1.19999 44.0169C0.922142 44.1838 0.697876 44.0559 0.697876 43.7329V11.5771C0.697876 11.2541 0.959648 10.9916 1.28342 10.9916H55.6355C55.9585 10.9916 56.221 10.7298 56.221 10.406C56.221 10.7298 55.996 11.1263 55.7189 11.2932Z" fill="#004E98"/>
</g>
</g>
<path d="M19.4638 32.324C18.8086 32.324 18.1993 32.1993 17.636 31.9505C17.0742 31.6995 16.6211 31.3275 16.2766 30.833C15.9337 30.3393 15.7623 29.7278 15.7623 28.9991C15.7623 28.9363 15.7638 28.8736 15.7684 28.8123C15.7745 28.7496 15.7776 28.696 15.7776 28.6531H17.8564C17.8564 28.6654 17.8534 28.7006 17.8473 28.7572C17.8411 28.8146 17.8381 28.8636 17.8381 28.9042C17.8381 29.4147 17.9889 29.8257 18.2912 30.138C18.5928 30.4503 19.0153 30.6065 19.5587 30.6065C20.1603 30.6065 20.5813 30.474 20.8201 30.2084C21.0605 29.9436 21.1814 29.6543 21.1814 29.342C21.1814 28.9769 21.0873 28.6853 20.8997 28.4664C20.7114 28.2482 20.4634 28.0683 20.1557 27.9275C19.8496 27.7867 19.5113 27.6596 19.1423 27.5448C18.7726 27.4308 18.3999 27.3014 18.0248 27.156C17.6513 27.009 17.3099 26.8192 17.0022 26.5865C16.6961 26.3523 16.4488 26.0477 16.2613 25.6741C16.073 25.2991 15.9796 24.8192 15.9796 24.2352C15.9796 23.5578 16.1457 22.9982 16.4787 22.5574C16.8132 22.115 17.2541 21.7843 17.8013 21.5654C18.3478 21.3472 18.9387 21.2378 19.574 21.2378C20.1986 21.2378 20.7727 21.3472 21.2977 21.5654C21.8243 21.7843 22.2453 22.1249 22.5622 22.588C22.8806 23.0518 23.0398 23.6527 23.0398 24.3913V24.5781H20.9946V24.4372C20.9946 23.9803 20.8668 23.619 20.6119 23.3534C20.3563 23.0886 19.9996 22.9554 19.5404 22.9554C19.0627 22.9554 18.693 23.0625 18.432 23.2769C18.1726 23.4896 18.0432 23.7621 18.0432 24.0943C18.0432 24.4066 18.1358 24.6569 18.3218 24.8444C18.5093 25.0327 18.7566 25.1889 19.0627 25.3129C19.3704 25.4376 19.7126 25.5547 20.0884 25.6649C20.4634 25.7736 20.8362 25.9007 21.2059 26.0477C21.5748 26.1931 21.9131 26.3829 22.2193 26.6171C22.527 26.8521 22.7742 27.1544 22.9602 27.5234C23.1477 27.8931 23.2419 28.3584 23.2419 28.9195C23.2419 29.7423 23.0804 30.4013 22.7582 30.8973C22.4351 31.3918 21.9904 31.753 21.4233 31.9811C20.8553 32.2092 20.2024 32.324 19.4638 32.324Z" fill="white"/>
<path d="M30.5506 34.0753L29.0044 32.324H28.8177C27.4338 32.324 26.3454 31.8725 25.554 30.9677C24.7617 30.0615 24.366 28.6654 24.366 26.7794C24.366 24.8858 24.7617 23.4881 25.554 22.588C26.3454 21.6879 27.4338 21.2378 28.8177 21.2378C30.2031 21.2378 31.2915 21.6879 32.0814 22.588C32.8728 23.4881 33.2693 24.8858 33.2693 26.7794C33.2693 28.1227 33.0657 29.2134 32.6601 30.0523C32.2536 30.8912 31.6811 31.4974 30.9425 31.8709L33.003 34.0753H30.5506ZM28.8177 30.6065C29.6198 30.6065 30.2184 30.3026 30.6149 29.6941C31.0106 29.0841 31.2088 28.2429 31.2088 27.1713V26.3906C31.2088 25.3174 31.0106 24.4763 30.6149 23.8678C30.2184 23.26 29.6198 22.9554 28.8177 22.9554C28.0278 22.9554 27.4315 23.26 27.0297 23.8678C26.6294 24.4763 26.4296 25.3174 26.4296 26.3906V27.1713C26.4296 28.2429 26.6294 29.0841 27.0297 29.6941C27.4315 30.3026 28.0278 30.6065 28.8177 30.6065Z" fill="white"/>
<path d="M34.737 32.1373V21.4245H36.7363V30.2635H41.2644V32.1373H34.737Z" fill="white"/>
</svg>
