<svg width="57" height="56" viewBox="0 0 57 56" fill="none" xmlns="http://www.w3.org/2000/svg">
<path d="M27.9855 15.0985C20.072 15.35 17.72 21.003 17.181 24.0655C17.8833 22.9303 20.0965 20.4395 23.355 20.4395C27.1525 20.4395 30.0435 24.678 31.8075 26.001C33.9506 27.6083 38.2571 29.7306 43.9105 28.01C48.4185 26.638 50.5092 21.8523 50.9665 19.582C48.786 22.5465 45.4785 24.3271 41.387 22.228C38.5695 20.7825 36.4625 14.829 27.9855 15.0985Z" fill="#07B6D5"/>
<path d="M16.789 28.5489C8.8755 28.8005 6.5235 34.4535 5.9845 37.516C6.68683 36.3808 8.9 33.89 12.1585 33.89C15.956 33.89 18.847 38.1285 20.611 39.4515C22.7541 41.0588 27.0605 43.1811 32.714 41.4605C37.222 40.0885 39.3127 35.3028 39.77 33.0325C37.5895 35.997 34.282 37.7776 30.1905 35.6785C27.373 34.233 25.266 28.2795 16.789 28.5489Z" fill="#07B6D5"/>
</svg>
