<svg width="56" height="56" viewBox="0 0 56 56" fill="none" xmlns="http://www.w3.org/2000/svg">
<g clip-path="url(#clip0_112_132)">
<path d="M18.1899 35.818C18.02 35.964 17.8131 36.0597 17.5924 36.0945C17.3716 36.1293 17.1455 36.102 16.9393 36.0154L14.7431 35.0893C14.5241 34.9975 14.3368 34.8428 14.2046 34.6446C14.0725 34.4465 14.0013 34.2135 14 33.975V21.022C14.0013 20.7834 14.0725 20.5505 14.2046 20.3523C14.3368 20.1542 14.5241 19.9995 14.7431 19.9077L16.9393 18.9968C17.1455 18.9102 17.3716 18.8828 17.5924 18.9176C17.8131 18.9525 18.02 19.0482 18.1899 19.1941L18.6823 19.604C18.5824 19.5319 18.4647 19.4888 18.3421 19.4797C18.2194 19.4705 18.0966 19.4956 17.9873 19.5521C17.8779 19.6087 17.7862 19.6945 17.7223 19.8001C17.6584 19.9057 17.6247 20.0269 17.625 20.1506V34.8464C17.6247 34.97 17.6584 35.0913 17.7223 35.1969C17.7862 35.3025 17.8779 35.3883 17.9873 35.4448C18.0966 35.5014 18.2194 35.5264 18.3421 35.5173C18.4647 35.5081 18.5824 35.4651 18.6823 35.3929L18.1899 35.818Z" fill="#52218A"/>
<path d="M14.7431 35.0897C14.5241 34.9978 14.3368 34.8432 14.2046 34.645C14.0725 34.4468 14.0013 34.2139 14 33.9753V33.8751C14.0015 34.0153 14.0447 34.1519 14.1242 34.2671C14.2036 34.3823 14.3156 34.471 14.4456 34.5217C14.5757 34.5723 14.7179 34.5826 14.8538 34.5513C14.9898 34.5199 15.1133 34.4483 15.2083 34.3458L33.9375 13.5317C34.2027 13.2664 34.5431 13.0902 34.912 13.0271C35.2809 12.9641 35.6601 13.0173 35.9977 13.1795L41.9729 16.0701C42.2807 16.2188 42.5404 16.4519 42.7221 16.7426C42.9038 17.0332 43.0001 17.3695 43 17.7127V17.7826C42.9998 17.5648 42.9382 17.3516 42.8222 17.1676C42.7063 16.9837 42.5408 16.8366 42.3449 16.7434C42.1491 16.6503 41.931 16.6149 41.716 16.6413C41.5009 16.6678 41.2978 16.755 41.1301 16.8929L18.6823 35.3933L18.1899 35.8184C18.02 35.9643 17.8131 36.06 17.5924 36.0949C17.3716 36.1297 17.1455 36.1023 16.9393 36.0158L14.7431 35.0897Z" fill="#6C33AF"/>
<path d="M14.7431 19.9076C14.5241 19.9995 14.3368 20.1542 14.2046 20.3523C14.0725 20.5505 14.0013 20.7834 14 21.022V21.1222C14.0015 20.982 14.0447 20.8455 14.1242 20.7302C14.2036 20.615 14.3156 20.5263 14.4456 20.4757C14.5757 20.425 14.7179 20.4147 14.8538 20.446C14.9898 20.4774 15.1133 20.549 15.2083 20.6515L33.9375 41.4656C34.2027 41.7309 34.5431 41.9071 34.912 41.9702C35.2809 42.0333 35.6601 41.98 35.9977 41.8178L41.9729 38.9272C42.2807 38.7785 42.5404 38.5454 42.7221 38.2548C42.9038 37.9641 43.0001 37.6278 43 37.2846V37.2147C42.9998 37.4325 42.9382 37.6457 42.8222 37.8297C42.7063 38.0136 42.5408 38.1607 42.3449 38.2539C42.1491 38.347 41.931 38.3824 41.716 38.356C41.5009 38.3295 41.2978 38.2423 41.1301 38.1044L18.6823 19.604L18.1899 19.1789C18.0185 19.0355 17.8109 18.9426 17.5902 18.9104C17.3694 18.8783 17.1442 18.9081 16.9393 18.9967L14.7431 19.9076Z" fill="#854CC7"/>
<path d="M35.9977 41.8178C35.6601 41.98 35.2809 42.0333 34.912 41.9702C34.5431 41.9071 34.2027 41.7309 33.9375 41.4656C34.0864 41.6142 34.2756 41.7151 34.4815 41.7558C34.6873 41.7965 34.9005 41.7751 35.0942 41.6943C35.288 41.6135 35.4536 41.4768 35.5703 41.3016C35.687 41.1264 35.7495 40.9204 35.75 40.7096V14.2935C35.7507 14.0821 35.6891 13.8753 35.5728 13.6991C35.4566 13.523 35.291 13.3854 35.097 13.3038C34.903 13.2223 34.6893 13.2003 34.4829 13.2408C34.2765 13.2813 34.0867 13.3824 33.9375 13.5314C34.2027 13.2661 34.5431 13.0898 34.912 13.0268C35.2809 12.9637 35.6601 13.0169 35.9977 13.1791L41.9729 16.0667C42.2807 16.2154 42.5404 16.4485 42.7221 16.7392C42.9038 17.0298 43.0001 17.3661 43 17.7093V37.2876C43.0001 37.6309 42.9038 37.9672 42.7221 38.2578C42.5404 38.5484 42.2807 38.7815 41.9729 38.9303L35.9977 41.8178Z" fill="#B179F1"/>
<g opacity="0.25">
<path fill-rule="evenodd" clip-rule="evenodd" d="M34.8105 41.9512C35.2099 42.0427 35.6284 41.9957 35.9977 41.8176L41.9729 38.93C42.2807 38.7813 42.5404 38.5481 42.7221 38.2575C42.9038 37.9669 43.0001 37.6306 43 37.2873V17.7091C43.0001 17.3658 42.9038 17.0295 42.7221 16.7389C42.5404 16.4483 42.2807 16.2152 41.9729 16.0664L35.9977 13.1789C35.5749 12.9746 35.0898 12.943 34.6444 13.0908C34.378 13.1805 34.136 13.3313 33.9375 13.5311L24.3071 24.2372L18.6823 19.6038L18.1899 19.1787C18.0418 19.0514 17.8653 18.962 17.6754 18.9181C17.4855 18.8742 17.2879 18.8772 17.0994 18.9267C17.0442 18.9389 16.9905 18.9572 16.9393 18.9813L14.7431 19.9074C14.5376 19.9927 14.3594 20.1334 14.2283 20.3139C14.0972 20.4944 14.0182 20.7079 14 20.9306C14 20.961 14 20.9914 14 21.0217V33.9747C14 34.0051 14 34.0354 14 34.0658C14.0182 34.2886 14.0972 34.502 14.2283 34.6825C14.3594 34.8631 14.5376 35.0037 14.7431 35.089L16.9393 35.9999C16.9905 36.024 17.0442 36.0423 17.0994 36.0546C17.2879 36.1041 17.4855 36.107 17.6754 36.0631C17.8653 36.0192 18.0418 35.9298 18.1899 35.8026L18.6823 35.3927L24.3071 30.7592L33.9375 41.4653C34.1776 41.7062 34.48 41.8745 34.8105 41.9512ZM35.75 21.3284L28.2614 27.4982L35.75 33.668V21.3284ZM17.625 23.3293L21.3739 27.4982L17.625 31.6671V23.3293Z" fill="url(#paint0_linear_112_132)"/>
</g>
</g>
<defs>
<linearGradient id="paint0_linear_112_132" x1="28.5" y1="12.9997" x2="28.5" y2="41.9967" gradientUnits="userSpaceOnUse">
<stop stop-color="white"/>
<stop offset="1" stop-color="white" stop-opacity="0"/>
</linearGradient>
<clipPath id="clip0_112_132">
<rect width="29" height="29" fill="white" transform="translate(14 13)"/>
</clipPath>
</defs>
</svg>
