<svg width="92" height="92" viewBox="0 0 92 92" fill="none" xmlns="http://www.w3.org/2000/svg">
<path d="M35.0952 64.2563C35.0952 63.4894 35.0952 62.7226 35.0952 61.9558C35.1006 61.9244 35.0995 61.8923 35.0919 61.8614C35.0843 61.8305 35.0704 61.8015 35.051 61.7761C35.0316 61.7507 35.0072 61.7296 34.9792 61.7139C34.9513 61.6983 34.9203 61.6885 34.8884 61.6852C32.9685 61.1452 31.1965 60.1833 29.7044 58.8711C28.6172 57.8921 27.712 56.7318 27.03 55.443C26.0687 53.5813 25.429 51.5734 25.1373 49.5027C24.7759 46.9051 24.6503 44.2807 24.7622 41.6609C24.7868 40.4395 24.8498 39.232 24.9901 38.0107C25.2136 35.6897 25.8051 33.4181 26.7426 31.2792C27.9002 28.6495 30.0004 26.5371 32.6381 25.3493C34.4349 24.5354 36.3252 23.9411 38.2673 23.5797C40.1717 23.2226 42.0999 23.0035 44.0366 22.924C45.7823 22.8628 47.53 22.8883 49.2732 23.0003C51.768 23.1045 54.2403 23.5136 56.6338 24.2182C58.4084 24.7246 60.0966 25.4906 61.6426 26.4909C63.1489 27.5145 64.3671 28.9009 65.1827 30.5194C66.1415 32.4097 66.7933 34.4378 67.114 36.5291C67.3223 37.7706 67.4593 39.023 67.5241 40.2799C67.6152 41.8379 67.6047 43.4027 67.5451 44.9537C67.4855 46.5047 67.3523 48.0106 67.1596 49.5304C66.9159 51.8115 66.2076 54.0199 65.0775 56.0224C63.6066 58.5556 61.2503 60.4686 58.453 61.4006C56.5402 62.0637 54.5652 62.5357 52.5574 62.8094C51.0888 63.0106 49.6167 63.1563 48.1375 63.2153C47.0054 63.2674 45.8733 63.2535 44.7411 63.2362C44.0997 63.2362 43.4618 63.1737 42.8238 63.1182C42.7612 63.1065 42.6965 63.1134 42.6379 63.1381C42.5792 63.1628 42.5293 63.2042 42.4944 63.257C41.2045 64.7906 39.8656 66.2826 38.5161 67.7677C38.2703 68.0387 37.9857 68.2725 37.6714 68.4617C37.4651 68.5957 37.2298 68.6798 36.9846 68.7072C36.7394 68.7346 36.4911 68.7045 36.2598 68.6194C36.0285 68.5343 35.8207 68.3965 35.6531 68.2172C35.4855 68.0379 35.3628 67.8222 35.295 67.5873C35.1614 67.1699 35.0951 66.7343 35.0987 66.2965C35.0952 65.6095 35.0952 64.9329 35.0952 64.2563ZM36.6549 67.1674L36.8197 67.0148L39.7464 63.7983C40.8727 62.5607 41.9978 61.322 43.1218 60.0821C43.177 60.0065 43.2516 59.9467 43.3378 59.9089C43.424 59.8711 43.5188 59.8566 43.6125 59.867C43.9945 59.9051 44.3766 59.919 44.7622 59.9225C46.0941 59.9225 47.426 59.9225 48.7579 59.8288C49.9672 59.7351 51.1729 59.5894 52.3717 59.402C53.6623 59.1796 54.94 58.8889 56.1992 58.5311C59.0033 57.7851 61.1729 56.189 62.5364 53.604C63.3413 52.0147 63.8462 50.2931 64.026 48.5242C64.2391 46.8569 64.3666 45.18 64.4081 43.4999C64.4702 41.3894 64.3246 39.2779 63.9734 37.1953C63.7299 35.6864 63.2917 34.2147 62.6696 32.8164C61.8774 31.0815 60.7558 29.645 59.0278 28.722C56.378 27.3063 53.5108 26.6748 50.556 26.3521C49.7183 26.2619 48.8806 26.2133 48.0394 26.1821C46.3169 26.0942 44.5908 26.1035 42.8694 26.2099C41.6314 26.3008 40.4001 26.4653 39.1821 26.7026C37.3908 27.0258 35.658 27.6105 34.0401 28.4375C33.1022 28.9066 32.2513 29.5296 31.5235 30.2799C30.3439 31.5851 29.4787 33.138 28.9928 34.8219C28.4165 36.7831 28.1019 38.8105 28.057 40.8524C27.9442 42.8944 27.97 44.9416 28.1341 46.9801C28.2362 48.1933 28.4414 49.3958 28.7475 50.5748C29.2029 52.4122 30.0864 54.1186 31.3272 55.5575C32.6669 57.0254 34.3983 58.0887 36.3219 58.6248C36.5638 58.6976 36.6725 58.7809 36.6725 59.0516C36.6514 60.0509 36.6725 61.0502 36.6725 62.0495L36.6549 67.1674Z" fill="#754A91"/>
<path d="M34.2021 36.1753C34.1775 35.4154 34.5946 34.8637 35.0994 34.3675C35.765 33.7363 36.4984 33.1789 37.2865 32.7055C37.6459 32.4861 38.0732 32.4025 38.4898 32.4701C38.9064 32.5377 39.2844 32.7519 39.5543 33.0733C40.5078 34.0655 41.3612 35.1474 42.1025 36.3037C42.4695 36.8238 42.7467 37.4007 42.9227 38.0108C42.993 38.2489 42.9976 38.5013 42.9359 38.7418C42.8743 38.9822 42.7487 39.2019 42.5722 39.3779C42.1678 39.7709 41.7368 40.136 41.2823 40.4709C41.0533 40.6516 40.883 40.895 40.7926 41.1708C40.7022 41.4466 40.6958 41.7426 40.7741 42.0219C41.0548 43.3338 41.6909 44.5453 42.6142 45.5264C43.7362 46.8823 45.1818 47.9401 46.8203 48.6042C47.2229 48.8091 47.6843 48.8715 48.1277 48.7811C48.3706 48.7155 48.5864 48.5759 48.7446 48.3821C48.9899 48.0733 49.2563 47.7749 49.4772 47.4452C49.7636 47.0341 50.2009 46.7499 50.6959 46.6533C51.1909 46.5567 51.7044 46.6554 52.127 46.9282C53.3151 47.6106 54.4368 48.4005 55.4778 49.2877C55.7232 49.4959 55.9791 49.6971 56.2244 49.9088C56.5147 50.128 56.7244 50.4354 56.8213 50.7839C56.9181 51.1323 56.8968 51.5027 56.7607 51.838C56.5441 52.402 56.2285 52.9235 55.8283 53.3786C55.3311 54.0628 54.6977 54.639 53.9671 55.0719C53.6179 55.2749 53.2255 55.3941 52.8214 55.42C52.4172 55.4459 52.0125 55.3778 51.6398 55.2211C48.8039 54.0908 46.1542 52.5483 43.7779 50.6444C41.4537 48.7503 39.4225 46.5291 37.7492 44.0518C36.3412 42.0009 35.221 39.7703 34.4194 37.421C34.334 37.1368 34.2638 36.8484 34.2091 36.557C34.1935 36.4303 34.1911 36.3024 34.2021 36.1753Z" fill="#754A91"/>
<path d="M46.3053 32.4835C48.6779 32.527 50.96 33.3933 52.7535 34.9317C54.547 36.47 55.7382 38.5826 56.1195 40.9013C56.273 41.7443 56.3551 42.5985 56.3648 43.4551C56.3648 43.6563 56.3123 43.802 56.095 43.8229C55.8776 43.8437 55.8216 43.6598 55.8216 43.4759C55.8541 41.7433 55.4948 40.0255 54.77 38.4481C54.1597 37.152 53.2554 36.0128 52.1277 35.1191C51 34.2255 49.6792 33.6014 48.2681 33.2955C47.5221 33.1245 46.7591 33.036 45.9933 33.0318C45.9188 33.033 45.8444 33.0237 45.7725 33.004C45.7113 32.9869 45.6592 32.947 45.6272 32.8926C45.5951 32.8382 45.5857 32.7737 45.6008 32.7125C45.6012 32.6835 45.6075 32.6549 45.6192 32.6283C45.631 32.6017 45.6479 32.5777 45.6692 32.5577C45.6904 32.5377 45.7154 32.5221 45.7428 32.5117C45.7701 32.5013 45.7993 32.4965 45.8286 32.4974C45.9863 32.4766 46.1476 32.4835 46.3053 32.4835Z" fill="#754A91"/>
<path d="M53.0675 41.8935C53.0558 40.9296 52.816 39.9818 52.3674 39.1261C51.9188 38.2705 51.2738 37.5308 50.4843 36.9664C49.5629 36.3257 48.4916 35.928 47.3718 35.811C47.1825 35.7867 46.9933 35.7763 46.8005 35.7555C46.6077 35.7346 46.492 35.6548 46.5096 35.4605C46.5271 35.2662 46.6498 35.1968 46.8601 35.2107C49.9656 35.3981 52.6084 37.1364 53.4216 40.3738C53.5703 40.998 53.6444 41.6373 53.6424 42.2787C53.6424 42.3377 53.6424 42.3967 53.6424 42.4522C53.6424 42.6257 53.5302 42.7402 53.3585 42.7367C53.3204 42.7354 53.2829 42.7265 53.2485 42.7104C53.214 42.6944 53.1832 42.6715 53.1579 42.6432C53.1327 42.615 53.1135 42.5819 53.1016 42.5461C53.0896 42.5103 53.0852 42.4724 53.0886 42.4348C53.0605 42.2717 53.0675 42.1052 53.0675 41.8935Z" fill="#754A91"/>
<path d="M47.6285 38.028C49.332 38.1425 50.5202 38.9683 50.8462 40.7622C50.8857 40.992 50.9138 41.2237 50.9303 41.4562C50.9303 41.6436 50.8882 41.8032 50.6815 41.8032C50.4747 41.8032 50.4046 41.6644 50.3975 41.4562C50.3956 40.7686 50.1816 40.0979 49.7842 39.5339C49.3665 39.0231 48.7668 38.6903 48.1087 38.604C47.9616 38.5768 47.813 38.5582 47.6636 38.5485C47.4182 38.5485 47.2815 38.4271 47.3131 38.2397C47.3446 38.0523 47.4918 38.0176 47.6285 38.028Z" fill="#754A91"/>
</svg>
